SplineFontDB: 3.2
FontName: Admin
FullName: Admin
FamilyName: Admin
Weight: Regular
Copyright: Copyright (c) 2025, kali
UComments: "2025-6-12: Created with FontForge (http://fontforge.org)"
Version: 001.000
ItalicAngle: 0
UnderlinePosition: -88
UnderlineWidth: 43
Ascent: 889
Descent: 111
InvalidEm: 0
LayerCount: 2
Layer: 0 0 "Back" 1
Layer: 1 0 "Fore" 0
XUID: [1021 270 -903350307 9068926]
StyleMap: 0x0000
FSType: 0
OS2Version: 0
OS2_WeightWidthSlopeOnly: 0
OS2_UseTypoMetrics: 1
CreationTime: 1749749803
ModificationTime: 1749821069
PfmFamily: 17
TTFWeight: 400
TTFWidth: 5
LineGap: 81
VLineGap: 0
OS2TypoAscent: 0
OS2TypoAOffset: 1
OS2TypoDescent: 0
OS2TypoDOffset: 1
OS2TypoLinegap: 81
OS2WinAscent: 0
OS2WinAOffset: 1
OS2WinDescent: 0
OS2WinDOffset: 1
HheadAscent: 0
HheadAOffset: 1
HheadDescent: 0
HheadDOffset: 1
OS2Vendor: 'PfEd'
MarkAttachClasses: 1
DEI: 91125
LangName: 1033
Encoding: ISO8859-1
UnicodeInterp: none
NameList: AGL For New Fonts
DisplaySize: -48
AntiAlias: 1
FitToEm: 0
WinInfo: 0 29 10
BeginPrivate: 0
EndPrivate
BeginChars: 256 74

StartChar: A
Encoding: 65 65 0
Width: 576
VWidth: 900
Flags: HW
LayerCount: 2
Fore
SplineSet
35 -45 m 0
 31 -41 27 -26 27 -10 c 0
 27 6 24 31 18 47 c 0
 2 95 2 106 12 117 c 0
 18 123 24 142 25 160 c 0
 26 178 31 193 34 194 c 0
 43 197 41 232 32 232 c 0
 26 232 28 233 34 237 c 0
 42 243 39 244 29 242 c 0
 20 240 11 244 3 252 c 0
 -8 263 -8 268 -1 289 c 0
 2 303 12 322 21 332 c 0
 37 351 38 352 37 446 c 0
 36 510 39 542 43 544 c 0
 46 546 51 553 53 559 c 0
 55 565 63 569 72 569 c 0
 83 569 85 571 83 580 c 0
 81 588 84 594 93 596 c 0
 105 600 124 628 124 644 c 0
 124 648 129 656 136 660 c 0
 143 664 148 674 148 680 c 0
 148 686 154 691 158 691 c 0
 162 691 170 696 174 703 c 0
 183 717 235 750 245 750 c 0
 255 750 313 725 339 709 c 0
 366 691 393 665 405 641 c 0
 409 632 422 618 433 608 c 0
 450 593 473 557 493 515 c 0
 502 496 516 444 559 276 c 0
 561 266 569 246 577 234 c 0
 588 216 590 209 584 200 c 0
 578 191 579 181 588 154 c 0
 608 91 608 90 586 78 c 0
 556 61 540 69 521 109 c 0
 512 128 504 148 504 152 c 0
 504 156 500 167 493 176 c 0
 486 185 479 206 477 225 c 0
 473 268 466 284 446 288 c 0
 435 290 426 295 422 309 c 0
 418 320 411 327 408 325 c 0
 405 323 402 324 402 327 c 0
 402 330 397 334 393 334 c 0
 389 334 384 330 384 327 c 0
 384 318 334 326 326 336 c 0
 323 340 307 348 291 352 c 0
 266 359 261 358 252 350 c 0
 245 343 239 343 233 346 c 0
 211 361 134 343 127 322 c 0
 126 318 123 292 122 266 c 0
 120 227 120 220 127 222 c 0
 135 224 135 216 133 172 c 0
 131 143 125 100 118 75 c 0
 108 38 108 27 115 9 c 0
 122 -11 121 -13 107 -27 c 0
 82 -52 50 -60 35 -45 c 0
457 390 m 0
 457 391 453 411 447 432 c 0
 436 476 415 521 407 521 c 0
 404 521 398 529 395 539 c 0
 392 549 384 558 378 560 c 0
 372 562 361 576 353 592 c 0
 337 622 269 684 252 684 c 0
 246 684 231 675 217 664 c 0
 193 644 194 642 195 606 c 0
 196 568 194 566 168 569 c 0
 156 570 147 545 145 505 c 0
 144 484 140 463 137 459 c 0
 127 445 124 408 133 400 c 0
 140 394 142 397 148 405 c 0
 152 413 156 412 158 408 c 0
 160 402 166 403 178 407 c 0
 187 410 231 414 276 414 c 0
 344 414 363 412 390 402 c 0
 420 391 457 384 457 390 c 0
EndSplineSet
Validated: 33
EndChar

StartChar: a
Encoding: 97 97 1
Width: 825
VWidth: 900
Flags: HW
LayerCount: 2
Fore
SplineSet
366 462 m 0
 421 504 447 500 554 447 c 0
 565 441 606 417 613 400 c 0
 620 383 630 361 634 349 c 0
 638 337 640 317 645 305 c 0
 715 133 881 68 870 33 c 0
 862 6 837 -7 794 0 c 0
 770 3 700 12 692 48 c 0
 677 109 663 130 636 137 c 0
 617 143 611 139 608 128 c 0
 606 120 590 104 573 93 c 0
 556 82 544 69 544 66 c 0
 544 63 535 57 521 54 c 0
 507 51 489 42 480 33 c 0
 433 -11 288 -29 219 1 c 0
 186 16 177 41 151 26 c 0
 151 26 132 14 1 -12 c 0
 -8 -14 -24 -14 -33 -12 c 0
 -42 -10 -60 -8 -70 -6 c 0
 -86 -3 -89 5 -89 30 c 0
 -89 59 -87 61 -65 57 c 0
 -64 57 -16 89 78 105 c 0
 110 111 118 122 107 150 c 0
 91 192 70 153 78 163 c 0
 80 165 105 231 259 382 c 0
 274 396 298 404 304 412 c 0
 312 423 303 414 366 462 c 0
443 295 m 2
 437 296 430 295 416 289 c 0
 400 282 368 257 344 232 c 0
 288 175 299 238 302 219 c 0
 304 210 297 198 287 191 c 0
 278 184 267 166 264 151 c 0
 260 129 260 120 276 108 c 0
 300 89 351 87 399 106 c 0
 443 123 477 154 508 200 c 0
 543 253 527 248 492 259 c 0
 482 262 466 272 458 282 c 0
 451 290 449 294 443 295 c 2
EndSplineSet
Validated: 37
EndChar

StartChar: b
Encoding: 98 98 2
Width: 742
VWidth: 900
Flags: HW
LayerCount: 2
Fore
SplineSet
267 700 m 0
 289 696 308 685 322 670 c 0
 359 630 370 598 376 525 c 0
 379 474 376 485 367 435 c 0
 360 399 350 350 346 325 c 0
 342 300 334 276 331 270 c 0
 328 264 324 240 323 215 c 2
 322 170 l 1
 370 146 l 2
 425 119 461 111 498 118 c 0
 518 121 523 126 521 136 c 0
 519 144 524 162 532 176 c 0
 540 190 548 212 548 228 c 0
 548 244 552 262 556 271 c 0
 563 285 562 291 546 303 c 0
 536 311 524 328 522 340 c 0
 518 359 520 363 537 371 c 0
 547 375 566 380 580 380 c 0
 600 380 609 376 619 360 c 0
 636 334 666 330 710 350 c 0
 728 358 755 366 770 366 c 0
 797 366 798 366 798 334 c 0
 798 304 796 303 760 286 c 0
 740 277 707 265 688 258 c 0
 638 242 630 232 632 195 c 0
 635 135 609 96 539 53 c 2
 497 27 l 1
 443 36 l 2
 414 40 373 50 354 58 c 0
 335 66 308 73 294 75 c 0
 273 77 267 77 264 62 c 0
 262 53 244 29 225 10 c 0
 185 -30 92 -23 0 -11 c 0
 -1 -11 -187 102 80 65 c 0
 127 58 133 58 150 70 c 0
 160 78 178 103 189 125 c 2
 209 165 l 1
 189 205 l 2
 159 263 136 318 136 330 c 0
 136 336 132 345 129 348 c 0
 119 359 107 437 107 494 c 0
 107 527 114 517 123 542 c 0
 131 564 139 595 141 610 c 0
 143 625 146 648 148 662 c 0
 151 684 155 686 189 695 c 0
 217 702 245 704 267 700 c 0
263 591 m 0
 251 591 240 586 232 580 c 0
 225 574 222 563 224 549 c 0
 226 533 224 528 216 528 c 0
 210 528 202 522 200 515 c 0
 192 496 194 432 202 428 c 0
 206 426 209 413 209 399 c 0
 209 372 233 316 248 312 c 0
 263 306 266 313 272 342 c 0
 274 357 282 384 288 402 c 0
 300 441 303 568 291 583 c 0
 287 589 275 591 263 591 c 0
EndSplineSet
Validated: 33
EndChar

StartChar: B
Encoding: 66 66 3
Width: 504
VWidth: 900
Flags: HW
LayerCount: 2
Fore
SplineSet
340 -52 m 0
 324 -43 296 -34 279 -33 c 0
 259 -32 246 -26 240 -17 c 0
 234 -8 224 -3 209 -4 c 0
 197 -5 181 -2 173 4 c 0
 163 12 146 13 111 10 c 0
 81 7 60 8 57 14 c 0
 50 25 29 125 29 146 c 0
 29 155 24 169 17 177 c 0
 10 185 2 209 0 230 c 0
 -2 251 -8 273 -12 279 c 0
 -19 287 -19 290 -9 290 c 0
 2 290 3 304 1 394 c 0
 0 451 -3 502 -4 506 c 0
 -5 510 -2 522 2 531 c 0
 6 540 13 559 16 574 c 0
 28 642 80 670 105 670 c 0
 109 670 130 682 150 694 c 0
 170 706 205 723 227 730 c 0
 265 742 270 742 320 726 c 0
 359 712 379 701 403 674 c 0
 472 596 425 509 371 402 c 4
 334 330 336 327 392 299 c 0
 443 274 514 184 522 137 c 0
 533 64 493 -6 412 -48 c 0
 391 -59 371 -69 370 -69 c 0
 369 -69 356 -61 340 -52 c 0
376 42 m 0
 385 43 395 45 398 45 c 0
 408 46 423 81 426 110 c 0
 428 134 425 144 396 173 c 0
 377 192 350 212 336 218 c 0
 322 224 302 235 291 243 c 0
 280 251 267 258 260 258 c 0
 245 258 217 288 217 304 c 0
 217 310 229 334 245 356 c 0
 261 378 274 401 274 405 c 0
 274 409 284 422 296 433 c 0
 324 459 336 456 343 530 c 2
 349 588 l 1
 316 622 l 2
 298 640 277 655 268 655 c 0
 240 655 169 616 151 590 c 0
 132 563 136 544 160 552 c 0
 169 554 176 553 176 549 c 0
 176 545 168 540 159 540 c 0
 148 540 143 535 143 524 c 0
 143 515 155 600 151 600 c 0
 147 600 144 596 146 590 c 0
 148 584 146 569 140 555 c 0
 133 537 131 525 137 514 c 0
 143 503 144 498 137 496 c 0
 126 493 125 471 135 468 c 0
 139 467 144 452 147 435 c 0
 151 409 152 404 138 404 c 0
 124 404 124 396 122 345 c 0
 120 288 120 286 150 256 c 0
 179 226 180 225 178 174 c 2
 174 122 l 1
 222 90 l 2
 248 72 278 51 289 43 c 0
 304 33 318 31 335 34 c 0
 349 37 367 41 376 42 c 0
356 348 m 0
 356 352 359 356 363 356 c 0
 367 356 372 352 372 348 c 0
 372 344 367 339 363 339 c 0
 359 339 356 344 356 348 c 0
EndSplineSet
Validated: 37
EndChar

StartChar: C
Encoding: 67 67 4
Width: 568
VWidth: 900
Flags: HW
LayerCount: 2
Fore
SplineSet
156 -29 m 2
 137 -23 111 -11 96 -2 c 0
 81 7 59 31 44 50 c 2
 17 84 l 1
 11 123 l 2
 8 144 3 205 1 258 c 2
 -3 354 l 1
 10 374 l 2
 18 384 24 403 24 415 c 0
 24 427 35 462 50 490 c 0
 65 518 74 545 74 549 c 0
 74 553 90 574 109 594 c 0
 128 614 143 635 143 641 c 0
 143 647 164 666 189 683 c 0
 214 700 239 714 243 714 c 0
 247 714 261 725 272 736 c 2
 292 757 l 1
 314 757 l 1
 336 757 l 1
 359 737 l 2
 371 726 383 707 386 696 c 2
 392 675 l 1
 352 626 l 2
 331 599 311 578 309 580 c 0
 307 582 289 577 270 567 c 2
 236 549 l 1
 215 516 l 2
 203 498 187 483 181 483 c 2
 171 483 l 1
 176 500 l 2
 178 509 184 518 188 518 c 2
 196 518 l 1
 190 526 l 1
 183 537 l 1
 169 507 l 2
 161 491 145 461 134 440 c 2
 115 402 l 1
 112 309 l 2
 111 258 108 213 105 209 c 0
 102 205 106 177 114 150 c 2
 127 100 l 1
 153 73 l 1
 178 47 l 1
 227 42 l 2
 254 39 286 34 298 32 c 2
 320 28 l 1
 353 51 l 1
 386 72 l 1
 410 70 l 1
 433 68 l 1
 449 81 l 2
 458 88 475 101 489 110 c 0
 503 119 529 136 546 146 c 0
 563 156 584 165 592 165 c 0
 600 165 606 162 606 158 c 0
 606 154 588 131 566 110 c 0
 544 89 521 71 515 71 c 0
 509 71 493 61 478 46 c 0
 463 31 446 20 439 20 c 0
 432 20 414 12 398 3 c 0
 382 -6 363 -15 353 -15 c 0
 343 -15 331 -18 327 -22 c 0
 323 -26 289 -34 254 -36 c 2
 190 -39 l 1
 156 -29 l 2
EndSplineSet
Validated: 33
EndChar

StartChar: D
Encoding: 68 68 5
Width: 552
VWidth: 900
Flags: HW
LayerCount: 2
Fore
SplineSet
180 -12 m 0
 134 -5 123 -2 123 9 c 0
 123 15 112 26 101 32 c 0
 59 53 45 78 45 132 c 0
 45 192 39 187 75 187 c 0
 87 187 98 190 98 194 c 0
 98 198 107 201 117 201 c 0
 131 201 139 196 145 182 c 0
 153 165 152 162 134 147 c 0
 102 122 131 119 174 73 c 0
 199 46 212 23 248 48 c 0
 354 120 387 148 413 214 c 0
 420 230 428 242 431 242 c 0
 440 242 459 298 461 331 c 0
 467 427 465 436 410 506 c 0
 371 556 350 576 322 590 c 0
 302 600 281 604 279 602 c 0
 277 600 279 564 285 525 c 0
 291 486 296 443 297 428 c 0
 298 413 304 361 308 315 c 0
 320 188 351 149 333 124 c 0
 324 113 311 101 303 100 c 0
 274 96 232 141 223 238 c 0
 219 289 208 372 201 420 c 0
 194 468 188 534 188 564 c 0
 187 612 185 622 169 637 c 0
 159 646 153 651 156 645 c 0
 165 629 139 632 130 648 c 0
 124 657 123 658 123 651 c 0
 123 644 118 643 110 646 c 0
 91 653 103 613 127 591 c 0
 137 581 145 569 145 565 c 0
 145 555 99 558 84 569 c 0
 76 575 75 574 79 567 c 0
 82 560 81 559 73 562 c 0
 66 564 64 571 66 575 c 0
 69 581 65 581 56 578 c 0
 48 575 45 575 47 577 c 0
 49 579 38 594 21 610 c 0
 -5 634 -9 640 -6 659 c 0
 0 687 10 699 64 726 c 0
 103 746 111 747 136 740 c 0
 152 736 170 728 177 722 c 0
 184 716 200 711 212 711 c 0
 251 711 335 684 375 658 c 0
 415 632 448 600 513 518 c 0
 519 511 529 484 537 457 c 0
 564 360 537 241 464 136 c 0
 445 109 430 85 430 82 c 0
 430 68 355 24 305 -2 c 0
 251 -30 227 -19 180 -12 c 0
EndSplineSet
Validated: 33
EndChar

StartChar: E
Encoding: 69 69 6
Width: 669
VWidth: 900
Flags: HW
LayerCount: 2
Fore
SplineSet
196 -26 m 0
 184 -9 172 -3 146 -3 c 0
 99 -3 90 11 91 92 c 0
 91 130 88 194 82 233 c 0
 76 272 72 321 72 340 c 0
 72 359 65 392 56 411 c 0
 36 457 -6 597 -12 639 c 0
 -15 665 -13 676 3 691 c 0
 14 701 30 710 38 710 c 0
 50 710 98 694 231 730 c 4
 259 738 351 746 360 750 c 0
 369 754 386 758 398 758 c 0
 410 758 423 763 426 767 c 0
 436 783 508 777 530 759 c 0
 550 743 550 742 539 709 c 0
 532 690 521 670 514 663 c 0
 500 649 471 654 480 669 c 0
 483 675 476 678 464 678 c 0
 452 678 438 673 435 669 c 0
 432 665 416 660 399 660 c 0
 378 660 366 656 362 646 c 0
 353 622 313 629 294 629 c 0
 285 629 273 623 267 615 c 0
 261 607 235 599 205 596 c 0
 162 592 153 589 150 573 c 0
 146 555 166 454 177 443 c 0
 180 440 193 444 207 452 c 0
 231 466 234 466 250 450 c 0
 265 435 283 433 399 429 c 0
 582 422 591 422 591 411 c 0
 591 395 560 371 532 367 c 0
 477 358 433 350 370 346 c 0
 325 343 306 339 309 331 c 0
 311 325 301 315 284 309 c 0
 252 298 246 288 234 199 c 0
 224 127 237 100 276 108 c 0
 298 112 307 109 317 94 c 0
 329 76 334 76 477 82 c 0
 651 90 691 84 687 56 c 0
 685 42 676 34 654 30 c 0
 601 19 455 -4 390 -12 c 0
 273 -26 263 -28 245 -38 c 0
 219 -52 214 -51 196 -26 c 0
281 332 m 0
 275 334 265 334 259 332 c 0
 253 330 258 327 270 327 c 0
 282 327 287 330 281 332 c 0
246 640 m 0
 242 647 246 649 256 645 c 0
 265 642 277 645 286 654 c 0
 300 668 292 619 259 613 c 0
 240 610 230 654 228 652 c 0
 222 646 234 629 244 629 c 0
 248 629 249 634 246 640 c 0
EndSplineSet
Validated: 37
EndChar

StartChar: F
Encoding: 70 70 7
Width: 501
VWidth: 900
Flags: HW
LayerCount: 2
Fore
SplineSet
138 -30 m 0
 123 -16 106 55 106 105 c 0
 106 117 100 142 94 159 c 0
 88 176 82 214 80 243 c 0
 78 272 72 303 69 310 c 0
 66 317 55 364 46 414 c 0
 37 464 28 513 26 522 c 0
 24 531 17 544 9 552 c 0
 -7 568 -13 633 1 649 c 0
 5 655 19 662 30 664 c 0
 41 666 69 679 89 694 c 0
 109 709 132 720 140 720 c 0
 159 720 198 732 250 756 c 0
 272 766 311 776 335 778 c 0
 359 780 380 787 382 790 c 0
 384 793 413 796 446 796 c 0
 521 796 542 782 536 742 c 0
 530 697 509 675 479 675 c 0
 452 675 451 676 468 720 c 0
 476 741 338 715 260 680 c 0
 238 670 213 660 207 660 c 0
 201 660 189 656 181 652 c 0
 169 645 169 642 177 630 c 0
 184 619 184 613 177 606 c 0
 166 595 148 604 154 619 c 0
 156 625 154 630 148 630 c 0
 130 630 129 620 141 601 c 0
 152 584 152 582 137 568 c 0
 128 560 122 551 122 550 c 0
 122 547 142 467 153 421 c 2
 161 390 l 1
 196 392 l 2
 215 393 240 396 250 400 c 0
 260 404 302 411 342 413 c 0
 382 415 424 421 433 424 c 0
 451 431 500 421 500 411 c 0
 500 401 483 390 450 380 c 0
 433 374 412 367 402 363 c 0
 392 359 371 354 356 352 c 0
 341 350 322 344 313 338 c 0
 304 332 285 327 270 327 c 0
 240 327 193 294 209 284 c 0
 216 280 216 269 210 242 c 0
 202 209 202 205 216 196 c 0
 228 187 231 176 230 137 c 0
 229 111 227 71 227 51 c 0
 226 -1 215 -33 195 -39 c 0
 168 -47 154 -44 138 -30 c 0
333 320 m 0
 333 324 337 327 341 327 c 0
 345 327 349 324 349 320 c 0
 349 316 345 312 341 312 c 0
 337 312 333 316 333 320 c 0
250 652 m 0
 250 656 254 660 261 660 c 0
 268 660 272 656 272 652 c 0
 272 648 268 645 261 645 c 0
 254 645 250 648 250 652 c 0
EndSplineSet
Validated: 33
EndChar

StartChar: G
Encoding: 71 71 8
Width: 630
VWidth: 900
Flags: HW
LayerCount: 2
Fore
SplineSet
612 -43 m 0
 587 -27 536 73 536 107 c 0
 536 154 517 205 497 214 c 0
 481 221 476 219 468 210 c 0
 462 203 461 194 464 190 c 0
 467 186 460 178 450 172 c 0
 438 165 435 159 441 156 c 0
 447 153 438 138 414 119 c 0
 393 101 377 82 378 73 c 0
 379 64 374 59 366 60 c 0
 358 61 348 54 342 43 c 0
 327 15 222 -26 162 -26 c 0
 136 -26 104 -21 90 -15 c 0
 76 -9 60 -3 57 -4 c 0
 54 -5 54 -2 56 2 c 0
 58 6 50 17 36 25 c 0
 6 43 -1 67 -2 172 c 0
 -2 238 1 262 18 304 c 0
 29 332 42 359 48 363 c 0
 54 367 64 390 72 412 c 0
 80 434 99 471 116 495 c 0
 133 519 190 592 205 620 c 0
 231 670 261 695 295 695 c 0
 303 695 318 707 328 719 c 0
 343 737 350 739 358 731 c 0
 374 716 323 636 281 575 c 0
 262 548 250 520 252 514 c 0
 254 508 252 505 248 507 c 0
 237 514 174 412 132 321 c 0
 78 203 75 116 123 73 c 0
 153 46 169 44 188 64 c 0
 197 74 211 83 219 84 c 0
 257 90 268 96 314 141 c 0
 341 168 366 189 372 189 c 0
 382 189 392 210 392 230 c 0
 392 237 384 253 375 267 c 0
 360 287 351 290 314 292 c 0
 278 294 267 299 253 318 c 0
 238 338 237 346 246 367 c 0
 258 397 270 399 340 396 c 0
 382 394 404 387 441 366 c 0
 467 351 492 335 493 332 c 0
 494 329 512 317 531 307 c 0
 599 273 621 238 637 147 c 0
 665 -21 658 -71 612 -43 c 0
417 114 m 0
 417 118 421 120 425 117 c 0
 429 114 434 110 434 108 c 0
 434 106 429 105 425 105 c 0
 421 105 417 110 417 114 c 0
340 280 m 0
 346 282 353 282 356 279 c 0
 359 276 353 274 344 274 c 0
 334 274 333 278 340 280 c 0
289 729 m 0
 289 738 293 746 300 746 c 0
 318 746 327 729 313 720 c 0
 295 709 289 711 289 729 c 0
EndSplineSet
Validated: 33
EndChar

StartChar: H
Encoding: 72 72 9
Width: 583
VWidth: 900
Flags: HW
LayerCount: 2
Fore
SplineSet
213 -57 m 4
 213 -49 218 -44 222 -44 c 4
 226 -44 228 -49 225 -57 c 4
 222 -65 219 -71 217 -71 c 4
 215 -71 213 -65 213 -57 c 4
116 -33 m 4
 112 -26 103 10 96 47 c 4
 89 84 80 123 76 132 c 4
 72 141 68 161 68 178 c 4
 68 195 62 212 56 218 c 4
 47 227 48 234 56 246 c 4
 64 258 64 276 55 318 c 4
 48 354 46 379 52 389 c 4
 61 406 53 513 38 570 c 4
 32 590 21 621 12 639 c 4
 -10 682 -10 729 11 730 c 4
 20 731 32 730 36 729 c 4
 40 728 56 725 68 724 c 4
 111 721 140 640 159 472 c 4
 163 434 169 399 172 393 c 4
 179 383 238 389 253 403 c 4
 257 407 269 411 277 411 c 4
 285 411 314 427 341 446 c 4
 385 476 392 485 394 515 c 4
 395 534 392 553 386 559 c 4
 380 565 377 579 377 593 c 4
 377 607 372 621 366 627 c 4
 358 635 359 647 368 675 c 4
 382 715 399 729 438 729 c 4
 458 729 468 721 490 686 c 4
 517 643 518 640 519 515 c 4
 520 383 525 342 568 148 c 4
 597 19 594 -7 550 -7 c 4
 521 -7 479 33 472 69 c 4
 457 139 450 185 446 214 c 4
 443 233 436 248 432 248 c 4
 428 248 427 257 429 269 c 4
 431 281 429 294 423 297 c 4
 417 300 413 316 413 333 c 4
 413 375 395 378 349 345 c 4
 328 329 293 308 273 298 c 4
 233 277 224 259 223 191 c 4
 223 167 219 137 213 123 c 4
 206 105 206 88 214 60 c 4
 230 4 221 -21 178 -33 c 4
 133 -47 127 -47 116 -33 c 4
EndSplineSet
Validated: 33
EndChar

StartChar: I
Encoding: 73 73 10
Width: 609
VWidth: 900
Flags: HW
HStem: 597 19<156 175>
VStem: 156 19<597 616>
LayerCount: 2
Fore
SplineSet
145 -18 m 0
 115 18 217 39 243 66 c 0
 260 84 261 91 251 134 c 0
 245 160 238 209 236 243 c 0
 234 277 227 311 223 315 c 0
 219 319 214 344 214 370 c 0
 214 396 205 453 195 496 c 0
 185 539 177 585 178 597 c 0
 181 629 158 633 106 608 c 0
 60 586 23 583 6 600 c 0
 -11 617 -9 646 10 646 c 0
 19 646 32 655 39 665 c 0
 46 675 56 684 63 684 c 0
 70 684 89 695 106 710 c 0
 128 729 147 736 183 738 c 0
 210 739 234 736 237 732 c 0
 243 724 326 727 374 737 c 0
 385 739 406 737 423 731 c 0
 459 719 464 686 432 658 c 0
 405 634 332 606 315 613 c 0
 295 621 293 606 302 531 c 0
 306 492 314 423 318 378 c 0
 338 195 361 109 390 109 c 0
 398 109 405 115 405 122 c 0
 405 130 410 128 420 118 c 0
 431 107 447 105 507 111 c 0
 547 114 522 113 542 114 c 4
 576 116 609 91 620 79 c 0
 635 63 668 44 533 -1 c 0
 501 -11 416 5 388 -10 c 0
 360 -25 323 -37 306 -40 c 0
 279 -44 166 -44 145 -18 c 0
156 608 m 0
 156 614 160 616 166 616 c 0
 172 616 176 614 176 608 c 0
 176 602 172 597 166 597 c 0
 160 597 156 602 156 608 c 0
EndSplineSet
Validated: 33
EndChar

StartChar: J
Encoding: 74 74 11
Width: 474
VWidth: 900
Flags: HW
LayerCount: 2
Fore
SplineSet
163 1 m 0
 84 59 33 115 33 140 c 0
 33 151 45 172 60 187 c 0
 80 207 95 213 123 213 c 0
 158 213 159 211 159 184 c 0
 159 146 189 103 228 79 c 0
 266 57 298 57 302 82 c 0
 303 92 310 115 318 132 c 0
 336 171 344 323 328 342 c 0
 322 349 313 376 306 403 c 0
 290 463 237 559 219 559 c 0
 212 559 207 566 208 574 c 0
 211 592 188 600 142 598 c 0
 123 597 95 600 79 603 c 0
 58 607 49 605 45 595 c 0
 42 587 34 582 27 582 c 0
 20 582 12 574 10 564 c 0
 7 552 0 548 -9 551 c 0
 -26 558 -30 630 -14 640 c 0
 -8 643 -6 652 -9 660 c 0
 -21 693 32 713 53 684 c 0
 62 672 68 671 97 681 c 0
 131 692 184 688 213 676 c 0
 224 672 236 678 260 702 c 0
 296 738 307 740 333 721 c 0
 343 714 363 708 379 708 c 0
 408 708 451 693 468 676 c 0
 474 672 481 656 484 642 c 0
 490 621 486 616 460 600 c 0
 440 588 418 583 389 584 c 0
 365 585 344 582 341 579 c 0
 338 576 347 555 362 530 c 0
 377 505 392 471 395 454 c 0
 398 437 410 399 420 367 c 0
 436 317 439 338 436 245 c 0
 432 122 410 49 364 -7 c 0
 338 -39 336 -38 278 -38 c 0
 221 -38 215 -37 163 1 c 0
EndSplineSet
Validated: 33
EndChar

StartChar: K
Encoding: 75 75 12
Width: 798
VWidth: 900
Flags: HW
LayerCount: 2
Fore
SplineSet
606 775 m 2
 606 775 l 1
 711 778 631 576 631 574 c 0
 633 559 630 547 622 544 c 0
 614 541 609 528 609 512 c 0
 609 469 599 438 585 444 c 0
 574 448 496 368 467 321 c 0
 455 302 455 296 472 278 c 0
 482 267 496 258 504 258 c 0
 512 258 565 213 622 158 c 0
 714 70 734 57 781 46 c 0
 810 39 840 31 843 29 c 0
 857 21 838 -4 804 -24 c 0
 747 -58 687 -44 608 22 c 0
 429 172 358 251 305 254 c 0
 245 258 227 231 226 180 c 0
 226 162 224 131 222 112 c 0
 220 93 217 59 217 39 c 0
 217 7 232 -47 204 -64 c 0
 162 -90 144 -90 120 -64 c 0
 110 -53 97 -19 93 14 c 0
 89 46 99 100 93 136 c 0
 87 172 80 232 74 268 c 0
 68 304 61 340 58 349 c 0
 55 358 49 397 47 439 c 0
 40 557 10 627 -8 647 c 0
 -18 658 -26 686 -27 718 c 0
 -29 760 -26 773 -10 785 c 0
 43 824 107 784 127 704 c 0
 143 643 136 596 135 584 c 0
 132 542 161 512 169 483 c 0
 176 458 195 410 201 403 c 0
 246 349 341 383 352 387 c 0
 403 409 430 437 449 484 c 0
 456 501 467 521 474 529 c 0
 485 543 539 718 539 720 c 0
 539 730 552 748 569 760 c 0
 583 770 595 775 606 775 c 2
226 180 m 0
 226 162 224 131 222 112 c 0
 220 93 217 59 217 39 c 0
 217 7 232 -47 204 -64 c 0
 162 -90 144 -90 120 -64 c 0
 110 -53 97 -19 93 14 c 0
 89 46 99 100 93 136 c 0
 87 172 80 232 74 268 c 0
 68 304 61 340 58 349 c 0
 55 358 49 397 47 439 c 0
 40 557 10 627 -8 647 c 0
 -18 658 -26 686 -27 718 c 0
 -29 760 -26 773 -10 785 c 0
 43 824 107 784 127 704 c 0
 143 643 145 591 135 584 c 1024
449 484 m 0
 456 501 467 521 474 529 c 0
 485 543 539 718 539 720 c 0
 539 730 552 748 569 760 c 0
 583 770 595 775 606 775 c 2
 606 775 l 1
 711 778 631 576 631 574 c 0
 633 559 630 547 622 544 c 0
 614 541 609 528 609 512 c 0
 609 469 599 438 585 444 c 0
 574 448 496 368 467 321 c 0
 455 302 455 296 472 278 c 0
 482 267 496 258 504 258 c 0
 512 258 565 213 622 158 c 0
 714 70 734 57 781 46 c 0
 810 39 840 31 843 29 c 0
 857 21 838 -4 804 -24 c 0
 747 -58 687 -44 608 22 c 1024
EndSplineSet
Validated: 35
EndChar

StartChar: L
Encoding: 76 76 13
Width: 633
VWidth: 900
Flags: HW
LayerCount: 2
Fore
SplineSet
129 -52 m 0
 127 -48 124 -27 123 -8 c 0
 122 11 117 43 111 62 c 0
 105 81 101 110 101 127 c 0
 101 144 97 162 91 165 c 0
 85 168 82 180 84 190 c 0
 86 200 83 213 75 220 c 0
 67 227 63 241 65 250 c 0
 67 259 63 270 56 272 c 0
 48 275 47 286 50 298 c 0
 57 325 22 586 10 602 c 0
 4 609 5 629 8 646 c 0
 14 670 11 675 2 669 c 0
 -19 655 3 727 25 745 c 0
 41 757 51 758 72 750 c 0
 99 740 109 718 117 645 c 0
 118 631 127 577 136 525 c 0
 145 473 157 403 161 368 c 0
 165 333 173 290 179 273 c 0
 189 245 203 183 218 110 c 0
 225 76 227 77 285 71 c 0
 318 68 416 67 505 69 c 0
 638 71 665 68 665 57 c 0
 665 18 529 -20 334 -38 c 0
 280 -42 212 -51 184 -54 c 0
 156 -57 131 -56 129 -52 c 0
EndSplineSet
Validated: 33
EndChar

StartChar: M
Encoding: 77 77 14
Width: 697
VWidth: 900
Flags: HW
LayerCount: 2
Fore
SplineSet
38 -25 m 0
 4 26 4 26 0 377 c 0
 -1 442 11 497 8 501 c 0
 -1 515 -2 547 7 559 c 0
 14 568 13 573 9 576 c 0
 -1 584 -3 671 7 678 c 0
 11 681 25 681 37 678 c 0
 49 675 68 675 79 677 c 0
 96 680 103 677 115 660 c 0
 123 649 135 633 143 624 c 0
 158 607 185 593 214 542 c 0
 232 510 301 411 313 411 c 0
 330 411 337 459 359 515 c 0
 371 545 393 580 403 595 c 0
 413 610 416 626 418 637 c 0
 422 662 460 674 471 668 c 0
 475 666 485 665 489 665 c 0
 493 665 500 656 502 646 c 0
 504 636 510 625 514 622 c 0
 523 616 548 561 548 547 c 0
 548 541 553 530 560 520 c 0
 567 510 573 497 573 493 c 0
 573 484 626 324 673 210 c 0
 685 181 699 154 703 150 c 0
 727 128 725 79 700 79 c 0
 685 79 622 78 610 94 c 0
 527 203 489 594 417 438 c 0
 399 399 396 369 393 359 c 0
 386 341 384 324 331 326 c 0
 281 327 286 321 254 343 c 0
 218 369 174 415 148 472 c 0
 129 514 97 561 101 549 c 0
 128 466 100 388 111 372 c 0
 122 357 124 296 114 274 c 0
 103 250 105 223 120 207 c 0
 134 192 134 191 126 144 c 0
 122 117 103 26 102 16 c 0
 101 6 95 -9 88 -16 c 0
 74 -31 46 -36 38 -25 c 0
EndSplineSet
Validated: 33
EndChar

StartChar: N
Encoding: 78 78 15
Width: 574
VWidth: 900
Flags: HW
LayerCount: 2
Fore
SplineSet
24 -42 m 0
 18 -28 18 -3 20 33 c 0
 22 60 16 123 10 132 c 0
 3 142 3 489 12 529 c 0
 16 550 16 564 8 580 c 0
 -9 613 5 612 27 650 c 0
 51 689 125 686 126 686 c 0
 255 621 258 575 294 428 c 0
 297 416 339 279 350 258 c 0
 371 219 399 158 414 156 c 0
 417 156 392 311 462 462 c 0
 490 523 469 581 470 596 c 0
 477 729 506 685 513 682 c 0
 559 660 582 664 592 602 c 0
 611 485 529 183 522 171 c 4
 512 154 502 127 501 110 c 0
 500 93 496 75 493 68 c 0
 490 61 487 51 487 48 c 0
 486 37 420 2 400 2 c 0
 376 2 300 76 300 98 c 0
 300 106 294 120 286 129 c 0
 278 138 265 160 259 176 c 0
 253 192 234 280 226 291 c 0
 218 302 210 316 210 323 c 0
 210 330 206 334 202 334 c 0
 198 334 171 441 164 458 c 0
 152 487 141 502 126 502 c 0
 123 502 138 386 141 359 c 0
 144 325 143 305 136 297 c 0
 129 288 129 277 135 258 c 0
 139 243 143 205 144 173 c 0
 145 141 148 112 150 109 c 0
 152 106 150 102 146 102 c 0
 134 102 119 55 119 12 c 0
 119 -39 113 -48 68 -52 c 0
 36 -55 28 -53 24 -42 c 0
50 309 m 0
 59 324 45 335 33 325 c 0
 26 319 24 312 26 308 c 0
 32 298 43 299 50 309 c 0
392 168 m 0
 392 172 395 173 399 171 c 0
 403 169 407 164 407 162 c 0
 407 160 403 159 399 159 c 0
 395 159 392 164 392 168 c 0
EndSplineSet
Validated: 37
EndChar

StartChar: O
Encoding: 79 79 16
Width: 609
VWidth: 900
Flags: HW
HStem: 660 18G<281 376>
LayerCount: 2
Fore
SplineSet
262 -70 m 0
 245 -64 224 -53 214 -45 c 0
 204 -37 185 -25 170 -19 c 0
 155 -13 132 9 116 29 c 0
 100 49 85 70 83 72 c 0
 81 74 69 94 58 115 c 0
 47 136 34 160 26 168 c 0
 18 176 11 207 9 249 c 0
 8 286 3 320 0 326 c 0
 -4 334 5 362 47 453 c 0
 65 492 138 568 165 586 c 0
 217 621 228 678 335 678 c 0
 417 678 526 578 573 458 c 0
 602 385 604 334 584 197 c 0
 562 47 374 -108 262 -70 c 0
357 40 m 0
 372 55 411 80 428 110 c 0
 456 161 472 185 483 292 c 0
 528 717 185 550 145 404 c 0
 133 360 125 360 114 308 c 0
 111 290 94 304 100 267 c 0
 108 220 129 174 162 145 c 0
 174 134 188 114 192 102 c 0
 196 90 209 77 219 75 c 0
 238 71 229 65 267 40 c 0
 287 26 323 8 357 40 c 0
EndSplineSet
Validated: 33
EndChar

StartChar: P
Encoding: 80 80 17
Width: 436
VWidth: 900
Flags: HW
LayerCount: 2
Fore
SplineSet
50 -19 m 4
 48 -5 41 44 35 94 c 4
 20 217 31 149 25 187 c 4
 17 239 -17 369 -25 377 c 4
 -36 389 -33 409 -17 425 c 4
 3 445 26 444 32 423 c 4
 36 406 36 407 47 428 c 4
 55 443 58 451 52 454 c 4
 44 458 50 498 65 533 c 4
 68 541 76 564 80 582 c 4
 84 600 89 576 97 586 c 4
 105 596 110 607 110 613 c 4
 110 630 163 687 195 704 c 4
 242 730 268 727 314 690 c 4
 335 673 370 652 380 637 c 4
 459 521 466 495 433 370 c 4
 411 282 324 179 262 168 c 4
 212 159 174 218 219 234 c 4
 256 248 314 265 344 344 c 4
 369 409 370 418 367 475 c 4
 364 526 358 543 336 586 c 4
 309 637 260 640 244 640 c 4
 241 640 157 585 146 533 c 4
 129 457 115 440 124 440 c 4
 135 440 134 418 122 406 c 4
 108 392 100 306 109 281 c 4
 118 257 128 257 134 277 c 4
 137 288 144 291 165 291 c 4
 203 291 220 280 226 250 c 4
 232 220 224 209 188 209 c 4
 137 209 137 209 128 156 c 4
 124 131 140 36 140 35 c 4
 147 -4 151 -37 151 -39 c 4
 151 -40 125 -124 54 -43 c 4
 47 -35 50 -19 50 -19 c 4
EndSplineSet
Validated: 37
EndChar

StartChar: Q
Encoding: 81 81 18
Width: 562
VWidth: 900
Flags: HW
LayerCount: 2
Fore
SplineSet
325 -61 m 0
 321 -58 295 -49 266 -42 c 0
 237 -35 203 -25 189 -19 c 0
 124 8 72 1 61 -36 c 0
 55 -55 45 -56 38 -39 c 0
 36 -32 28 -28 22 -28 c 0
 10 -28 -2 35 6 56 c 0
 8 63 7 74 1 81 c 0
 -10 95 -3 141 11 141 c 0
 15 141 12 146 4 152 c 0
 -6 160 -7 165 0 169 c 0
 6 172 9 185 9 200 c 0
 9 215 18 241 28 259 c 0
 38 277 49 300 51 310 c 0
 53 320 60 340 64 354 c 0
 68 368 76 394 82 414 c 0
 88 434 96 455 99 459 c 0
 102 463 102 470 100 472 c 0
 94 478 119 567 127 567 c 0
 130 567 134 579 135 593 c 0
 136 607 144 625 152 634 c 0
 160 643 169 661 172 672 c 0
 175 683 187 702 198 714 c 0
 224 743 280 728 335 677 c 0
 374 641 403 565 403 548 c 0
 403 544 412 528 423 513 c 0
 441 489 460 434 480 342 c 0
 482 331 490 319 494 316 c 0
 498 313 503 270 504 216 c 0
 506 118 507 119 543 94 c 0
 561 82 587 36 587 17 c 0
 587 -5 573 -9 544 6 c 0
 506 26 499 28 485 28 c 0
 477 28 453 12 434 -8 c 0
 415 -28 394 -44 388 -44 c 0
 382 -44 368 -48 356 -55 c 0
 344 -62 329 -64 325 -61 c 0
369 42 m 2
 387 54 394 93 378 93 c 0
 374 93 354 103 336 117 c 0
 315 132 298 140 289 137 c 0
 279 134 276 136 278 143 c 0
 284 160 184 206 165 196 c 0
 154 190 154 189 158 197 c 0
 162 204 158 206 148 204 c 0
 136 202 134 195 136 173 c 0
 137 157 131 128 122 107 c 0
 106 70 141 71 156 63 c 4
 164 59 162 52 195 52 c 0
 228 52 272 46 294 40 c 0
 348 26 349 27 369 42 c 2
 369 42 l 2
408 196 m 0
 416 217 415 259 405 279 c 0
 401 289 391 321 387 350 c 0
 373 431 363 461 346 467 c 0
 336 470 334 477 336 487 c 0
 338 497 329 515 304 544 c 0
 284 568 291 563 287 575 c 0
 273 610 216 606 210 554 c 0
 209 543 204 525 200 522 c 0
 196 519 190 521 190 503 c 0
 190 485 189 473 187 479 c 0
 184 490 173 444 159 399 c 0
 150 371 143 349 164 327 c 0
 176 313 186 307 192 307 c 0
 198 307 204 295 216 287 c 0
 278 245 313 224 334 214 c 0
 348 207 361 197 364 191 c 0
 373 176 401 180 408 196 c 0
EndSplineSet
Validated: 33
EndChar

StartChar: R
Encoding: 82 82 19
Width: 358
VWidth: 900
Flags: HW
LayerCount: 2
Fore
SplineSet
51 -50 m 0
 40 -42 34 -22 28 28 c 0
 9 186 10 211 10 213 c 0
 1 251 -2 422 6 426 c 0
 8 428 11 442 11 457 c 0
 11 472 14 488 18 494 c 0
 22 500 31 521 39 542 c 0
 47 563 60 591 68 602 c 0
 76 613 82 625 82 629 c 0
 82 633 97 654 115 674 c 0
 147 710 148 710 184 706 c 0
 231 700 265 683 300 646 c 0
 332 613 339 590 339 519 c 0
 339 437 317 390 226 263 c 0
 222 256 229 235 253 197 c 0
 272 167 295 130 304 115 c 0
 347 44 348 44 368 16 c 0
 396 -22 396 -27 372 -39 c 0
 339 -56 313 -47 285 -9 c 0
 270 10 269 10 250 34 c 0
 231 58 211 88 205 100 c 0
 199 112 185 134 173 148 c 0
 161 162 152 178 152 184 c 0
 152 198 143 205 116 209 c 0
 97 212 95 211 101 183 c 0
 138 -17 140 -17 115 -43 c 0
 96 -63 72 -66 51 -50 c 0
204 358 m 0
 259 423 266 436 268 489 c 0
 269 528 267 542 250 568 c 0
 239 585 230 603 230 606 c 0
 230 609 223 620 214 628 c 0
 205 636 198 637 198 633 c 0
 198 629 192 626 184 627 c 0
 176 628 167 618 160 604 c 0
 153 592 139 568 129 551 c 0
 110 519 102 476 114 476 c 0
 125 476 123 454 109 440 c 0
 101 432 98 413 98 387 c 0
 98 337 110 323 161 314 c 0
 163 314 183 333 204 358 c 0
EndSplineSet
Validated: 33
EndChar

StartChar: S
Encoding: 83 83 20
Width: 433
VWidth: 900
Flags: HW
LayerCount: 2
Fore
SplineSet
88 -40 m 2
 78 -38 71 -33 73 -27 c 0
 75 -21 58 -5 37 10 c 0
 -11 43 -25 67 -18 104 c 0
 -10 144 10 162 36 148 c 0
 52 140 56 131 58 104 c 0
 61 60 97 28 141 28 c 0
 179 28 240 45 266 62 c 0
 277 69 299 80 316 86 c 0
 355 101 366 111 359 136 c 0
 351 166 272 248 230 266 c 0
 210 275 187 286 181 292 c 0
 175 298 154 311 134 320 c 0
 114 329 91 345 82 354 c 0
 73 363 62 371 56 371 c 0
 36 371 20 487 37 515 c 0
 39 519 45 533 47 544 c 0
 62 606 126 678 194 714 c 0
 240 739 307 737 332 710 c 0
 367 673 395 629 352 578 c 4
 309 526 267 551 258 606 c 0
 252 643 239 648 195 622 c 0
 149 595 131 565 110 502 c 0
 93 451 118 417 208 370 c 0
 228 359 257 343 269 334 c 0
 301 312 391 243 398 235 c 0
 430 202 446 172 450 140 c 0
 454 106 453 101 428 69 c 0
 413 50 376 18 346 -1 c 2
 291 -37 l 1
 198 -40 l 2
 147 -42 98 -42 88 -40 c 2
 88 -40 l 2
EndSplineSet
Validated: 33
EndChar

StartChar: T
Encoding: 84 84 21
Width: 711
VWidth: 900
Flags: HW
LayerCount: 2
Fore
SplineSet
405 -14 m 0
 393 -2 386 11 389 27 c 4
 391 41 392 86 385 102 c 0
 377 119 379 131 387 159 c 0
 390 170 368 338 368 340 c 0
 365 356 370 416 370 440 c 0
 370 464 367 496 360 511 c 0
 352 530 351 540 357 546 c 0
 363 552 361 558 352 567 c 0
 345 574 339 584 339 588 c 0
 339 596 255 599 227 591 c 0
 217 589 211 582 213 579 c 0
 220 568 190 563 182 574 c 0
 176 582 174 582 171 574 c 0
 169 568 162 564 156 564 c 0
 150 564 135 558 123 551 c 0
 96 537 65 544 40 566 c 0
 1 601 12 667 58 678 c 0
 72 681 102 688 126 695 c 0
 151 702 171 705 173 701 c 0
 181 689 350 692 367 704 c 0
 385 716 660 714 677 700 c 0
 694 686 689 661 669 657 c 0
 627 648 533 619 501 619 c 0
 440 619 454 643 470 484 c 0
 478 406 465 337 469 335 c 0
 473 333 478 296 480 254 c 0
 482 212 486 227 489 191 c 0
 492 155 494 117 494 106 c 0
 494 95 493 66 493 44 c 0
 493 17 483 -34 475 -42 c 0
 460 -57 419 -28 405 -14 c 0
EndSplineSet
Validated: 33
EndChar

StartChar: U
Encoding: 85 85 22
Width: 598
VWidth: 900
Flags: HW
LayerCount: 2
Fore
SplineSet
170 -84 m 0
 151 -76 91 -9 84 12 c 0
 81 22 72 41 63 53 c 0
 54 65 43 103 36 137 c 0
 29 171 21 206 15 213 c 0
 9 221 4 298 3 422 c 0
 2 591 4 626 18 668 c 2
 34 717 l 1
 74 720 l 2
 112 722 115 721 124 695 c 0
 130 680 137 668 143 668 c 0
 158 668 153 635 138 629 c 0
 130 626 125 618 125 610 c 0
 125 602 130 599 134 601 c 0
 138 603 139 597 137 588 c 0
 135 579 126 572 118 573 c 0
 109 574 101 563 97 543 c 0
 87 499 88 312 99 261 c 0
 105 237 112 204 114 187 c 0
 116 170 121 147 125 137 c 0
 129 127 136 110 142 96 c 0
 157 60 207 0 224 0 c 0
 230 0 244 10 256 24 c 0
 346 121 362 133 381 130 c 0
 396 128 404 133 411 150 c 0
 430 196 442 214 456 218 c 0
 465 221 469 235 470 263 c 0
 471 293 476 308 490 317 c 0
 508 329 516 356 502 356 c 0
 493 356 494 410 503 425 c 0
 510 436 492 532 480 549 c 0
 476 555 476 562 482 565 c 0
 488 568 490 576 490 584 c 0
 490 592 488 595 482 592 c 0
 476 589 473 592 475 606 c 0
 477 623 483 628 511 630 c 0
 538 632 548 629 562 613 c 0
 571 602 579 585 579 577 c 0
 579 569 586 556 593 549 c 0
 608 534 621 423 606 432 c 0
 600 435 597 418 597 388 c 0
 597 361 592 337 588 334 c 0
 582 331 582 323 588 313 c 0
 592 304 592 293 588 285 c 0
 584 278 579 258 579 242 c 0
 579 224 572 207 561 198 c 0
 551 190 544 176 544 168 c 0
 544 160 534 150 522 147 c 0
 510 144 500 136 500 129 c 0
 500 122 489 105 477 90 c 0
 465 75 454 58 454 50 c 0
 454 42 448 35 439 32 c 0
 430 29 406 12 387 -6 c 0
 326 -62 289 -82 234 -86 c 0
 206 -88 178 -87 170 -84 c 0
EndSplineSet
Validated: 33
EndChar

StartChar: V
Encoding: 86 86 23
Width: 711
VWidth: 900
Flags: HW
LayerCount: 2
Fore
SplineSet
291 -44 m 2
 288 -36 279 -30 271 -30 c 0
 263 -30 256 -26 256 -19 c 0
 256 -12 243 9 227 27 c 0
 211 45 198 66 198 73 c 0
 198 81 194 83 187 80 c 0
 180 76 179 76 182 82 c 0
 185 88 180 118 169 150 c 0
 158 182 145 219 141 235 c 0
 137 251 113 320 88 390 c 0
 63 460 44 525 44 536 c 0
 44 547 40 561 36 565 c 0
 32 569 23 594 15 618 c 0
 7 642 -7 679 -17 703 c 0
 -35 745 -35 746 -15 767 c 0
 0 783 13 787 32 784 c 0
 82 775 97 748 125 608 c 0
 140 536 157 467 165 456 c 0
 173 445 179 425 179 415 c 0
 179 405 183 393 189 390 c 0
 195 387 198 374 198 360 c 0
 198 346 202 336 206 336 c 0
 210 336 220 311 227 279 c 0
 234 247 243 218 246 216 c 0
 249 214 260 192 267 168 c 0
 274 144 283 124 287 124 c 0
 291 124 296 118 296 111 c 0
 296 104 303 90 313 78 c 0
 330 56 331 54 368 70 c 0
 421 91 437 109 471 177 c 0
 487 209 506 243 514 251 c 0
 522 259 528 276 528 287 c 0
 528 298 536 327 547 348 c 0
 563 380 565 392 557 421 c 0
 550 445 550 462 557 474 c 0
 563 484 563 492 560 492 c 0
 557 492 561 501 570 511 c 0
 582 525 590 550 592 604 c 0
 596 685 610 714 648 714 c 0
 682 714 702 685 702 634 c 0
 702 609 697 587 693 584 c 0
 679 576 662 502 658 433 c 0
 655 376 633 273 614 225 c 0
 610 215 599 183 590 154 c 0
 580 121 558 84 533 58 c 0
 495 16 417 -30 388 -30 c 0
 380 -30 368 -36 361 -43 c 0
 343 -60 298 -61 291 -44 c 2
 291 -44 l 2
EndSplineSet
Validated: 33
EndChar

StartChar: W
Encoding: 87 87 24
Width: 822
VWidth: 900
Flags: HW
LayerCount: 2
Fore
SplineSet
548 -96 m 0
 523 -93 509 -80 484 -40 c 0
 466 -12 452 15 452 21 c 0
 452 27 440 58 424 91 c 0
 408 124 395 162 395 176 c 0
 395 211 387 240 377 240 c 0
 366 240 340 191 318 127 c 0
 296 62 266 27 230 25 c 0
 209 24 199 34 164 104 c 0
 142 148 120 182 116 180 c 0
 112 178 111 182 114 190 c 0
 121 206 94 253 84 244 c 0
 81 241 80 245 82 255 c 0
 84 265 82 278 78 282 c 0
 74 286 69 300 69 314 c 0
 69 328 62 361 53 390 c 0
 31 464 11 583 17 618 c 0
 20 637 17 655 7 672 c 0
 -4 691 -6 702 1 718 c 0
 11 742 53 752 53 732 c 0
 53 725 57 720 64 720 c 0
 72 720 78 700 81 662 c 0
 84 629 90 598 93 591 c 0
 96 584 103 556 106 529 c 0
 109 502 116 465 123 446 c 0
 130 427 132 412 129 412 c 0
 126 412 129 403 135 392 c 0
 141 381 146 365 147 357 c 0
 148 349 161 316 176 286 c 0
 191 256 208 220 212 208 c 0
 227 169 262 194 272 250 c 0
 276 278 288 303 299 312 c 0
 309 320 328 351 340 380 c 0
 354 413 372 444 390 456 c 0
 418 476 421 475 432 453 c 0
 439 441 446 416 448 399 c 0
 450 382 457 352 461 332 c 0
 465 312 473 280 475 261 c 0
 477 242 482 227 486 227 c 0
 490 227 493 209 493 187 c 0
 493 165 501 133 510 116 c 0
 519 99 525 79 525 71 c 0
 525 63 531 51 537 44 c 0
 552 26 611 57 611 83 c 0
 611 93 632 134 658 171 c 0
 687 213 669 149 669 166 c 0
 669 181 674 202 680 213 c 0
 692 234 706 299 718 398 c 0
 728 478 766 609 778 609 c 0
 782 609 782 613 775 620 c 0
 758 636 774 671 803 687 c 0
 821 697 827 695 843 669 c 0
 862 637 868 568 853 534 c 0
 849 524 846 503 847 487 c 0
 848 471 843 446 834 431 c 0
 825 416 813 376 809 342 c 0
 797 250 723 82 657 -19 c 0
 623 -71 583 -100 548 -96 c 0
EndSplineSet
Validated: 37
EndChar

StartChar: X
Encoding: 88 88 25
Width: 612
VWidth: 900
Flags: HW
LayerCount: 2
Fore
SplineSet
72 -68 m 0
 50 -56 53 -40 97 87 c 0
 129 178 151 235 183 297 c 0
 200 330 200 341 190 374 c 0
 183 395 170 423 159 434 c 0
 148 445 140 460 140 466 c 0
 140 472 113 504 83 539 c 0
 53 574 18 612 6 627 c 2
 -17 652 l 1
 8 647 l 2
 28 641 31 645 29 664 c 0
 27 682 33 688 55 690 c 0
 77 692 97 680 150 626 c 0
 186 589 219 548 225 534 c 0
 239 498 263 504 284 549 c 0
 313 610 395 718 425 734 c 0
 440 742 463 744 477 741 c 0
 506 733 578 666 578 646 c 0
 578 626 539 590 483 561 c 0
 445 541 428 522 395 461 c 0
 373 419 354 380 354 372 c 0
 354 364 369 343 388 324 c 0
 468 245 520 170 547 92 c 0
 559 57 570 42 587 40 c 0
 612 37 617 17 600 -16 c 0
 592 -31 577 -36 552 -36 c 0
 515 -36 500 -24 458 45 c 0
 421 107 411 119 381 148 c 0
 363 165 355 178 364 178 c 0
 388 178 361 199 331 205 c 0
 316 207 304 214 302 220 c 0
 300 226 293 232 289 232 c 0
 275 232 236 160 218 104 c 0
 194 31 173 -10 143 -46 c 0
 114 -81 101 -85 72 -68 c 0
144 349 m 0
 147 355 153 360 155 360 c 0
 157 360 161 355 161 349 c 0
 161 343 157 339 150 339 c 0
 143 339 141 343 144 349 c 0
EndSplineSet
Validated: 33
EndChar

StartChar: Y
Encoding: 89 89 26
Width: 544
VWidth: 900
Flags: HW
LayerCount: 2
Fore
SplineSet
231 -65 m 0
 222 -55 219 -68 222 -60 c 0
 225 -52 222 -21 225 -18 c 0
 233 -8 232 -8 235 3 c 0
 239 17 247 40 249 61 c 0
 251 82 259 93 263 117 c 0
 267 141 278 176 285 195 c 0
 295 223 295 232 285 244 c 0
 278 252 262 259 250 259 c 0
 234 259 211 274 181 306 c 0
 156 332 132 353 126 353 c 0
 120 353 112 364 109 378 c 0
 106 392 91 428 75 460 c 0
 59 492 47 523 47 530 c 0
 47 537 44 543 38 543 c 0
 32 543 28 549 28 556 c 0
 28 563 23 581 15 596 c 0
 7 611 0 638 0 654 c 0
 0 670 4 686 11 692 c 0
 18 698 33 705 43 708 c 0
 59 712 64 706 78 673 c 0
 87 651 94 628 94 622 c 0
 94 616 101 607 108 601 c 0
 115 595 123 579 126 564 c 0
 129 549 144 510 160 476 c 0
 176 442 201 398 218 379 c 0
 236 359 258 344 269 344 c 0
 280 344 292 348 298 351 c 0
 304 354 325 347 333 363 c 0
 341 379 355 403 361 412 c 0
 367 421 375 429 381 429 c 0
 387 429 390 441 388 459 c 0
 386 477 392 508 403 533 c 0
 454 645 442 643 443 644 c 0
 451 654 457 668 457 676 c 0
 457 684 470 701 486 712 c 0
 502 723 518 732 524 732 c 0
 530 732 544 723 556 711 c 0
 572 695 574 684 570 670 c 0
 570 670 503 456 503 454 c 0
 493 414 475 368 465 353 c 0
 455 338 446 318 446 308 c 0
 446 298 434 281 422 269 c 0
 410 257 396 233 393 217 c 0
 390 201 382 178 378 164 c 0
 374 150 369 132 367 122 c 0
 365 112 360 96 358 88 c 0
 356 80 345 51 336 24 c 0
 327 -3 323 -32 326 -40 c 0
 329 -48 326 -37 320 -48 c 0
 314 -59 304 -73 298 -76 c 0
 292 -79 279 -83 268 -83 c 0
 257 -83 240 -75 231 -65 c 0
246 191 m 0
 246 195 249 204 255 207 c 0
 261 210 263 206 260 198 c 0
 257 190 252 183 250 183 c 0
 248 183 246 187 246 191 c 0
251 231 m 0
 248 237 252 237 260 234 c 0
 268 231 274 227 274 225 c 0
 274 223 270 220 266 220 c 0
 262 220 254 225 251 231 c 0
180 263 m 0
 180 265 182 268 184 268 c 0
 186 268 189 265 189 263 c 0
 189 261 186 259 184 259 c 0
 182 259 180 261 180 263 c 0
94 349 m 0
 94 351 97 353 99 353 c 0
 101 353 105 351 105 349 c 0
 105 347 101 344 99 344 c 0
 97 344 94 347 94 349 c 0
EndSplineSet
Validated: 33
EndChar

StartChar: Z
Encoding: 90 90 27
Width: 714
VWidth: 900
Flags: HW
LayerCount: 2
Fore
SplineSet
713 -21 m 0
 713 -15 717 -13 721 -15 c 0
 725 -17 726 -23 724 -26 c 0
 718 -36 713 -33 713 -21 c 0
575 -6 m 0
 569 3 405 -1 404 -1 c 0
 384 -8 377 -7 361 3 c 0
 346 13 340 15 325 8 c 0
 313 2 305 1 298 7 c 0
 292 11 287 12 285 8 c 0
 283 5 275 2 268 3 c 0
 261 4 251 2 248 0 c 0
 245 -2 227 -4 210 -2 c 0
 181 1 180 3 182 24 c 0
 183 36 190 57 198 72 c 0
 235 143 248 160 259 174 c 0
 266 182 281 206 291 225 c 0
 301 244 333 351 350 369 c 0
 367 387 389 416 399 435 c 0
 409 454 421 475 424 479 c 0
 427 483 432 495 434 505 c 0
 437 519 435 524 423 531 c 0
 360 565 350 567 262 569 c 0
 237 570 218 574 218 577 c 0
 218 580 214 583 210 583 c 0
 206 583 206 579 208 575 c 0
 211 569 211 569 205 572 c 0
 201 575 185 568 169 557 c 0
 149 542 140 531 138 514 c 0
 136 495 138 490 152 487 c 0
 166 484 167 479 164 467 c 0
 162 458 156 446 150 440 c 0
 141 431 140 432 140 449 c 0
 140 459 136 470 132 472 c 0
 128 474 125 483 127 490 c 0
 129 497 128 507 125 513 c 0
 119 521 116 520 102 512 c 0
 88 503 85 503 83 512 c 0
 82 518 64 539 44 558 c 0
 8 593 -14 632 -6 651 c 0
 -4 657 1 662 4 662 c 0
 7 662 11 665 11 669 c 0
 11 673 6 675 3 673 c 0
 0 671 -3 674 -3 682 c 0
 -3 714 45 715 79 686 c 0
 97 670 144 659 169 663 c 0
 175 664 183 661 189 659 c 0
 210 651 259 649 270 656 c 0
 277 660 284 659 286 655 c 0
 288 651 306 647 324 647 c 0
 366 647 454 624 484 606 c 0
 535 577 542 519 505 464 c 0
 495 449 480 424 472 407 c 0
 447 359 389 214 339 162 c 0
 314 135 295 109 296 105 c 0
 297 101 315 90 334 83 c 0
 350 77 350 77 583 75 c 0
 724 74 724 73 732 33 c 0
 735 14 735 9 719 3 c 0
 691 -8 581 -15 575 -6 c 0
180 111 m 0
 180 119 182 121 184 115 c 0
 186 109 186 103 184 101 c 0
 182 99 180 103 180 111 c 0
190 140 m 0
 196 146 203 150 205 150 c 0
 207 150 206 146 204 140 c 0
 202 134 195 128 189 128 c 0
 180 128 181 131 190 140 c 0
EndSplineSet
Validated: 33
EndChar

StartChar: c
Encoding: 99 99 28
Width: 643
VWidth: 900
Flags: HW
LayerCount: 2
Fore
SplineSet
543 587 m 0
 586 587 613 564 605 532 c 0
 597 503 552 476 533 462 c 0
 3 80 496 97 501 101 c 0
 512 110 529 117 538 117 c 0
 559 117 621 150 654 177 c 0
 679 197 680 197 705 182 c 0
 725 171 731 159 731 138 c 0
 731 103 720 95 666 83 c 0
 642 77 604 63 582 52 c 0
 560 41 531 28 519 25 c 0
 507 22 483 13 466 6 c 0
 411 -18 488 16 434 6 c 0
 374 -5 367 -6 327 4 c 0
 292 12 238 58 237 78 c 0
 236 98 228 98 174 71 c 0
 149 59 127 51 125 53 c 0
 123 55 111 52 101 47 c 0
 -49 -22 -71 45 -68 96 c 5
 94 148 29 129 116 176 c 0
 138 188 133 194 235 348 c 0
 250 369 295 420 333 459 c 0
 413 540 489 587 543 587 c 0
EndSplineSet
Validated: 33
EndChar

StartChar: d
Encoding: 100 100 29
Width: 747
VWidth: 900
Flags: HW
HStem: -32 19G<249 253> -24 84<-67 60> -11 88<255 346> 299 88<384 448> 357 15<604 618>
VStem: 246 12<-31 -15> 411 58<718 753>
LayerCount: 2
Fore
SplineSet
444 758 m 1x56
 452 758 461 754 469 746 c 0
 486 728 524 653 524 638 c 0
 524 631 528 622 531 619 c 0
 534 616 547 566 559 511 c 0
 585 393 591 371 606 371 c 0
 612 371 618 367 618 363 c 0
 618 359 615 357 611 357 c 0
 607 357 603 350 603 342 c 0
 603 334 607 330 611 332 c 0
 620 338 620 326 610 316 c 0
 601 307 625 229 641 217 c 0
 645 213 651 197 652 181 c 0
 653 159 660 148 677 133 c 0
 699 113 735 105 744 119 c 0
 751 129 807 128 817 118 c 0
 821 114 826 106 826 100 c 0
 826 85 776 34 762 34 c 0
 755 34 743 27 736 19 c 0
 725 7 736 -19 721 -9 c 0
 706 1 699 0 647 -14 c 0
 577 -32 560 -6 560 10 c 0
 560 17 556 29 550 37 c 0
 541 51 540 50 513 34 c 0
 466 6 396 -6 378 12 c 0
 369 21 342 21 348 12 c 0
 355 2 327 -10 291 -11 c 0
 270 -12 259 -15 259 -21 c 0
 259 -27 255 -32 251 -32 c 0xae
 247 -32 244 -26 246 -20 c 0
 248 -14 245 -7 238 -1 c 0
 228 7 229 7 233 -2 c 0
 236 -8 223 5 204 25 c 0
 185 45 165 62 161 62 c 0
 157 62 135 80 123 58 c 0
 80 -18 39 -41 -32 -24 c 0
 -64 -16 -86 9 -82 30 c 0
 -79 49 -46 69 -32 61 c 0
 -29 59 -22 61 -21 65 c 0
 -19 72 -16 72 -8 66 c 0
 -2 62 12 56 24 54 c 0
 44 50 47 52 62 82 c 0
 71 100 78 121 78 130 c 0
 78 139 82 151 86 155 c 0
 90 159 95 172 96 182 c 0
 99 212 155 239 198 271 c 0
 219 287 265 311 300 326 c 0
 335 341 373 359 385 368 c 0
 399 377 421 386 439 387 c 2
 470 389 l 1
 468 429 l 2
 465 505 460 526 432 583 c 0
 410 630 406 642 412 656 c 0
 418 667 417 679 411 691 c 0
 399 717 399 727 417 744 c 0
 427 753 436 758 444 758 c 1x56
429 299 m 0x36
 402 298 262 204 243 174 c 0
 226 147 229 111 253 86 c 0
 268 70 273 68 320 74 c 0
 348 77 382 79 398 78 c 0
 464 75 483 96 474 170 c 0
 464 251 447 299 429 299 c 0x36
EndSplineSet
Validated: 33
EndChar

StartChar: e
Encoding: 101 101 30
Width: 790
VWidth: 900
Flags: HW
LayerCount: 2
Fore
SplineSet
450 -15 m 1
 434 -12 409 3 393 15 c 0
 377 27 350 46 334 56 c 0
 318 66 290 89 271 105 c 2
 237 134 l 1
 200 116 l 2
 166 99 159 97 105 100 c 0
 55 103 39 108 11 125 c 0
 -26 147 -34 169 -18 206 c 0
 -8 231 -6 231 28 209 c 0
 67 182 102 188 102 222 c 0
 102 232 108 234 129 234 c 0
 168 234 174 182 174 246 c 0
 174 294 176 307 195 343 c 0
 257 459 282 487 358 525 c 0
 392 542 403 545 440 542 c 0
 491 536 514 522 528 489 c 0
 536 470 537 459 530 432 c 0
 518 378 461 270 411 204 c 0
 386 170 367 198 367 191 c 0
 367 176 413 136 457 114 c 0
 500 92 573 81 615 91 c 0
 670 105 693 129 727 161 c 0
 766 197 779 198 793 165 c 0
 802 144 802 137 793 117 c 0
 742 -5 453 -16 450 -15 c 1
 450 -15 l 1
350 304 m 0
 367 339 378 372 375 375 c 0
 358 392 291 316 287 276 c 0
 284 243 287 235 303 237 c 0
 315 239 326 256 350 304 c 0
775 57 m 1
 775 63 781 73 790 81 c 0
 805 93 805 93 801 81 c 0
 799 74 796 63 796 57 c 0
 796 51 791 47 785 47 c 0
 779 47 775 51 775 57 c 1
 775 57 l 1
65 89 m 2
 71 91 77 91 79 89 c 0
 81 87 78 84 70 84 c 0
 62 84 59 87 65 89 c 2
 65 89 l 2
EndSplineSet
Validated: 37
EndChar

StartChar: f
Encoding: 102 102 31
Width: 414
VWidth: 900
Flags: HW
LayerCount: 2
Fore
SplineSet
130 -343 m 2
 103 -318 95 -301 91 -268 c 0
 89 -254 86 -245 84 -246 c 0
 80 -249 78 -248 84 -224 c 0
 87 -210 88 -198 82 -178 c 0
 71 -136 62 -59 62 -7 c 0
 62 49 59 53 26 32 c 0
 0 15 -62 -6 -90 -6 c 0
 -107 -6 -113 -3 -124 8 c 2
 -137 22 l 1
 -127 32 l 2
 -121 36 -111 39 -104 39 c 0
 -85 39 -41 56 -22 72 c 0
 -13 80 -2 86 4 86 c 0
 10 86 20 92 27 100 c 0
 44 120 69 177 75 205 c 0
 83 245 82 386 73 415 c 0
 63 450 59 499 66 511 c 0
 74 526 108 540 122 534 c 0
 142 526 180 492 192 471 c 0
 203 451 205 446 205 399 c 0
 205 347 193 297 155 164 c 0
 145 128 139 76 147 76 c 0
 149 76 163 74 178 72 c 2
 205 68 l 1
 307 119 l 1
 416 110 l 5
 430 101 l 6
 437 95 442 87 443 84 c 4
 445 73 421 48 400 39 c 4
 379 30 312 46 285 19 c 0
 263 -2 263 -14 285 -52 c 0
 310 -95 313 -108 316 -165 c 0
 322 -265 306 -322 264 -350 c 0
 249 -360 242 -361 200 -362 c 2
 154 -364 l 1
 130 -343 l 2
224 -288 m 2
 238 -274 254 -228 254 -207 c 0
 254 -181 245 -137 233 -115 c 0
 218 -88 187 -59 165 -50 c 0
 149 -43 147 -43 145 -50 c 0
 138 -67 156 -208 170 -256 c 0
 181 -296 203 -309 224 -288 c 2
 224 -288 l 2
EndSplineSet
Validated: 33
EndChar

StartChar: g
Encoding: 103 103 32
Width: 657
VWidth: 900
Flags: HW
LayerCount: 2
Fore
SplineSet
454 -462 m 0
 445 -459 435 -450 429 -443 c 0
 423 -436 413 -432 407 -432 c 0
 401 -432 392 -428 388 -425 c 0
 384 -422 370 -415 358 -412 c 0
 346 -409 328 -401 318 -393 c 0
 308 -385 294 -376 285 -370 c 0
 276 -364 249 -340 224 -315 c 0
 172 -263 148 -220 148 -181 c 0
 148 -159 150 -155 183 -119 c 0
 202 -98 238 -66 259 -48 c 0
 280 -30 297 -14 297 -12 c 0
 297 -10 286 -5 274 -3 c 0
 262 -1 245 5 237 12 c 0
 229 19 218 25 214 25 c 0
 200 25 164 52 164 62 c 0
 164 68 161 75 158 81 c 0
 147 97 127 88 101 55 c 0
 89 39 72 23 64 20 c 0
 56 17 27 11 -1 10 c 0
 -45 8 -54 9 -54 16 c 0
 -54 26 -36 40 -4 58 c 0
 10 66 29 84 39 98 c 0
 49 112 68 135 80 150 c 0
 100 175 101 177 98 201 c 0
 94 234 104 259 136 285 c 0
 150 296 173 316 188 331 c 0
 231 373 302 418 342 428 c 0
 361 432 382 435 390 433 c 0
 398 431 415 418 430 403 c 0
 458 375 478 333 500 251 c 0
 507 227 514 204 516 197 c 0
 523 179 540 181 551 202 c 0
 589 273 614 302 639 302 c 0
 649 302 669 279 673 261 c 0
 680 235 669 200 649 178 c 0
 638 166 623 147 616 137 c 0
 609 127 594 108 580 96 c 0
 555 74 556 73 554 35 c 0
 553 14 556 -28 560 -57 c 0
 579 -180 582 -216 575 -297 c 0
 568 -376 561 -419 551 -431 c 0
 543 -442 504 -463 486 -466 c 0
 477 -467 463 -465 454 -462 c 0
476 -371 m 0
 491 -349 497 -255 489 -172 c 0
 481 -85 470 4 464 10 c 0
 458 16 418 -11 368 -50 c 0
 347 -67 326 -81 324 -81 c 0
 315 -81 266 -124 266 -132 c 0
 266 -136 255 -149 244 -163 c 0
 233 -177 223 -193 223 -200 c 0
 223 -219 269 -278 291 -287 c 0
 302 -291 318 -301 326 -308 c 0
 334 -315 352 -324 364 -327 c 0
 379 -330 390 -337 392 -343 c 0
 396 -358 435 -385 452 -385 c 0
 462 -385 470 -380 476 -371 c 0
360 79 m 0
 394 125 410 163 410 201 c 0
 410 239 398 288 384 303 c 0
 375 313 352 315 334 306 c 0
 315 297 238 209 230 188 c 0
 221 163 225 116 240 98 c 0
 246 90 259 82 270 79 c 0
 286 75 292 69 299 54 c 2
 308 35 l 1
 325 45 l 2
 334 51 350 65 360 79 c 0
EndSplineSet
Validated: 33
EndChar

StartChar: i
Encoding: 105 105 33
Width: 528
VWidth: 900
Flags: HW
LayerCount: 2
Fore
SplineSet
8 0 m 0
 -22 12 -27 25 -11 58 c 0
 0 80 15 92 52 106 c 0
 87 118 117 140 156 179 c 2
 212 234 l 1
 204 287 l 2
 200 316 196 380 196 431 c 0
 196 511 198 526 214 537 c 0
 251 564 303 525 330 452 c 0
 340 426 353 372 362 332 c 0
 381 245 404 217 484 174 c 0
 546 141 558 112 516 101 c 0
 478 91 359 93 320 104 c 0
 286 114 281 112 244 84 c 0
 190 44 81 -10 52 -9 c 0
 38 -9 19 -4 8 0 c 0
186 720 m 1
 170 727 152 740 145 748 c 0
 131 765 132 765 182 776 c 0
 202 780 208 789 214 824 c 0
 225 898 278 916 304 854 c 0
 321 812 320 748 302 730 c 0
 282 710 220 704 186 720 c 1
 186 720 l 1
EndSplineSet
Validated: 33
EndChar

StartChar: h
Encoding: 104 104 34
Width: 771
VWidth: 900
Flags: HW
LayerCount: 2
Fore
SplineSet
197 -9 m 1
 186 7 177 23 177 26 c 0
 177 29 170 35 162 39 c 0
 150 46 143 45 128 33 c 0
 88 0 55 -13 9 -14 c 0
 -31 -14 -36 -12 -34 -1 c 0
 -33 6 -38 20 -47 29 c 0
 -65 48 -62 48 -9 55 c 0
 9 57 29 61 32 63 c 0
 35 65 54 88 73 114 c 2
 108 160 l 1
 105 207 l 2
 103 233 93 277 82 309 c 2
 62 366 l 1
 81 487 l 2
 109 665 131 720 170 720 c 0
 225 720 289 545 289 394 c 0
 289 329 286 313 264 244 c 0
 237 164 233 133 248 127 c 0
 262 123 281 134 320 171 c 0
 398 244 532 311 572 299 c 0
 581 296 602 262 634 199 c 0
 661 146 689 97 696 88 c 0
 708 73 712 72 740 79 c 0
 766 86 775 84 795 74 c 0
 817 63 851 22 843 14 c 0
 841 12 821 5 800 -3 c 0
 752 -20 665 -23 636 -7 c 0
 603 10 538 120 538 158 c 0
 538 167 535 181 529 188 c 0
 520 200 518 201 490 189 c 0
 461 175 385 102 385 87 c 0
 385 83 370 62 352 43 c 0
 334 24 317 0 313 -9 c 0
 305 -26 299 -28 248 -34 c 0
 220 -37 216 -36 197 -9 c 1
 197 -9 l 1
208 315 m 0
 216 333 220 458 213 467 c 0
 210 471 200 477 192 479 c 0
 173 485 170 470 170 398 c 0
 170 328 192 278 208 315 c 0
EndSplineSet
Validated: 33
EndChar

StartChar: j
Encoding: 106 106 35
Width: 474
VWidth: 900
Flags: HW
LayerCount: 2
Fore
SplineSet
244 -381 m 1
 200 -375 140 -342 102 -303 c 0
 59 -258 60 -247 105 -161 c 0
 137 -101 149 -61 170 -29 c 0
 199 14 204 58 194 68 c 0
 191 71 173 65 147 55 c 0
 67 21 23 10 1 14 c 0
 -32 20 -88 68 -62 68 c 0
 -58 68 -47 70 -40 74 c 0
 -33 78 -16 85 0 86 c 0
 19 88 48 99 94 123 c 0
 131 142 164 160 166 162 c 0
 168 164 166 179 162 194 c 0
 158 209 152 233 150 249 c 0
 148 265 144 281 141 287 c 0
 135 299 149 318 164 318 c 0
 168 318 179 323 186 327 c 0
 197 335 200 335 212 326 c 0
 228 315 229 308 256 190 c 0
 267 143 281 100 285 96 c 0
 293 88 308 -2 335 12 c 0
 371 31 459 104 461 119 c 0
 462 125 458 137 451 146 c 0
 436 165 440 178 459 182 c 0
 476 186 497 172 511 147 c 0
 519 132 519 126 513 101 c 0
 504 63 488 44 433 2 c 0
 387 -33 357 -63 357 -74 c 0
 357 -77 350 -89 346 -99 c 0
 336 -119 339 -161 350 -222 c 0
 353 -238 356 -274 356 -303 c 0
 356 -366 352 -371 306 -380 c 0
 289 -383 276 -386 276 -386 c 0
 276 -386 261 -383 244 -381 c 1
 244 -381 l 1
264 -284 m 0
 268 -266 251 -163 241 -147 c 0
 232 -132 215 -131 206 -142 c 0
 196 -153 181 -218 183 -240 c 0
 184 -259 189 -263 216 -279 c 0
 252 -300 260 -301 264 -284 c 0
170 486 m 1
 166 489 157 492 150 492 c 0
 134 492 114 510 114 525 c 0
 114 531 119 542 125 548 c 0
 131 554 136 565 136 573 c 0
 136 590 156 604 177 604 c 0
 207 604 267 544 264 518 c 0
 263 510 255 504 237 500 c 0
 223 496 210 490 207 487 c 0
 200 480 181 479 170 486 c 1
 170 486 l 1
EndSplineSet
Validated: 33
EndChar

StartChar: k
Encoding: 107 107 36
Width: 621
VWidth: 900
Flags: HW
LayerCount: 2
Fore
SplineSet
179 -46 m 1
 176 -40 169 -13 163 15 c 0
 157 43 148 76 144 88 c 0
 140 100 132 137 129 170 c 0
 126 203 121 230 120 231 c 0
 114 237 92 217 46 169 c 0
 19 141 -7 110 -10 102 c 0
 -19 82 -56 71 -86 79 c 0
 -104 83 -108 87 -108 99 c 0
 -108 110 -104 116 -93 117 c 0
 -72 120 -54 133 -30 165 c 0
 -9 194 -7 202 -8 272 c 0
 -8 301 8 317 40 313 c 0
 59 311 71 312 87 322 c 0
 106 334 106 336 102 357 c 0
 95 386 95 551 102 596 c 0
 105 616 108 656 107 685 c 0
 106 714 108 747 111 758 c 0
 118 779 183 845 197 845 c 0
 217 845 283 826 309 812 c 0
 360 786 364 778 364 691 c 0
 364 611 370 532 334 502 c 0
 165 364 317 458 352 462 c 0
 388 466 421 455 456 425 c 0
 498 389 506 368 505 307 c 0
 505 264 502 244 488 208 c 0
 454 116 453 123 490 88 c 0
 530 49 575 29 639 17 c 0
 667 11 688 4 688 2 c 0
 688 0 678 -10 663 -18 c 0
 641 -32 629 -33 586 -33 c 0
 539 -33 532 -31 467 -2 c 0
 429 15 385 35 368 42 c 0
 351 49 327 63 313 73 c 0
 276 101 268 94 268 28 c 0
 268 -29 264 -40 231 -47 c 0
 222 -49 207 -53 199 -54 c 0
 189 -56 182 -53 179 -46 c 1
 179 -46 l 1
396 191 m 0
 404 202 409 220 411 249 c 0
 415 305 410 340 393 361 c 0
 376 382 360 379 322 350 c 0
 301 333 295 326 295 309 c 0
 295 298 290 272 286 251 c 0
 276 205 280 195 316 188 c 0
 331 186 346 180 349 177 c 0
 359 167 384 174 396 191 c 0
255 647 m 0
 265 666 273 689 273 698 c 0
 273 717 258 726 234 720 c 0
 215 716 214 710 206 611 c 2
 202 572 l 1
 219 592 l 2
 228 603 245 628 255 647 c 0
EndSplineSet
Validated: 33
EndChar

StartChar: l
Encoding: 108 108 37
Width: 541
VWidth: 900
Flags: HW
LayerCount: 2
Fore
SplineSet
-39 4 m 0
 -46 25 -37 52 -10 94 c 0
 4 115 18 139 20 148 c 0
 28 174 52 222 84 268 c 0
 101 293 120 330 127 354 c 2
 141 397 l 1
 115 452 l 2
 86 513 74 557 62 650 c 0
 51 742 50 819 64 844 c 0
 107 925 195 901 250 794 c 0
 268 760 267 754 267 673 c 0
 267 627 261 547 254 496 c 0
 244 418 244 396 251 358 c 0
 260 302 280 246 300 222 c 2
 315 204 l 1
 392 115 l 2
 427 117 478 123 506 127 c 0
 562 135 576 133 576 115 c 0
 576 75 464 28 364 28 c 0
 298 28 248 134 215 168 c 0
 201 183 188 194 186 194 c 0
 184 194 176 184 168 172 c 0
 160 160 137 131 118 106 c 0
 99 81 79 51 75 37 c 0
 66 5 43 -8 -2 -8 c 0
 -29 -8 -36 -7 -39 4 c 0
177 704 m 0
 177 729 172 746 165 753 c 0
 140 778 132 737 151 690 c 0
 166 654 177 659 177 704 c 0
180 168 m 0
 180 171 184 174 187 174 c 0
 190 174 191 171 189 168 c 0
 187 165 183 161 182 161 c 0
 181 161 180 165 180 168 c 0
EndSplineSet
Validated: 33
EndChar

StartChar: m
Encoding: 109 109 38
Width: 841
VWidth: 900
Flags: HW
LayerCount: 2
Fore
SplineSet
116 22 m 2
 109 36 102 47 100 47 c 0
 98 47 81 37 62 25 c 0
 25 1 10 -1 -18 10 c 0
 -45 21 -39 32 -2 43 c 0
 18 49 39 70 54 98 c 0
 57 105 67 118 75 127 c 0
 90 144 90 145 87 184 c 0
 85 206 80 240 76 259 c 0
 72 278 69 300 69 309 c 0
 69 318 66 331 60 338 c 0
 46 356 46 374 61 381 c 0
 78 389 97 379 117 351 c 0
 138 322 143 312 152 269 c 0
 162 219 171 215 186 250 c 0
 194 270 232 307 253 318 c 0
 263 324 273 325 282 323 c 0
 298 319 372 245 398 208 c 0
 408 193 418 182 421 182 c 0
 428 182 444 200 453 217 c 0
 468 244 571 316 613 327 c 0
 633 333 638 332 659 324 c 0
 699 308 726 277 765 196 c 0
 786 151 811 111 830 86 c 0
 847 65 862 41 864 34 c 0
 872 4 828 4 792 36 c 0
 781 45 769 53 767 53 c 0
 753 53 706 129 681 190 c 0
 665 227 644 252 627 252 c 0
 623 252 608 243 594 232 c 0
 580 221 559 204 547 194 c 0
 533 184 515 162 504 143 c 0
 469 82 435 61 408 81 c 0
 401 87 388 101 378 115 c 0
 354 148 302 208 292 214 c 0
 288 216 279 217 271 215 c 0
 253 211 237 175 241 150 c 0
 243 138 241 124 230 99 c 0
 222 81 214 60 212 54 c 0
 204 27 168 -2 142 -2 c 0
 132 -2 126 2 116 22 c 2
 116 22 l 2
EndSplineSet
Validated: 33
EndChar

StartChar: n
Encoding: 110 110 39
Width: 781
VWidth: 900
Flags: HW
LayerCount: 2
Fore
SplineSet
-32 -21 m 1
 -44 -12 -47 -4 -45 20 c 0
 -43 49 -42 52 12 79 c 0
 137 142 137 141 112 207 c 0
 104 228 98 257 98 269 c 0
 98 281 89 311 79 336 c 0
 55 393 49 392 76 403 c 0
 95 411 111 420 130 394 c 0
 247 235 200 220 276 327 c 0
 322 392 353 393 426 425 c 0
 497 455 523 430 566 410 c 0
 646 373 637 364 682 209 c 0
 709 113 747 109 777 90 c 0
 816 65 824 58 816 43 c 0
 804 19 758 -3 732 1 c 0
 718 3 690 9 669 12 c 0
 648 15 629 22 627 24 c 0
 625 26 617 51 611 78 c 0
 605 105 596 131 592 137 c 0
 588 143 580 164 577 183 c 0
 574 202 588 201 569 243 c 0
 531 326 517 337 482 315 c 0
 471 307 455 305 444 308 c 0
 419 314 320 231 304 199 c 4
 257 101 248 10 245 9 c 0
 230 5 161 -16 161 0 c 0
 161 6 158 12 155 14 c 0
 145 21 56 2 37 -9 c 0
 3 -30 -15 -33 -32 -21 c 1
 -32 -21 l 1
EndSplineSet
Validated: 33
EndChar

StartChar: o
Encoding: 111 111 40
Width: 787
VWidth: 900
Flags: HW
LayerCount: 2
Fore
SplineSet
-33 9 m 0
 -48 24 -45 65 -29 90 c 0
 -21 101 -2 114 7 126 c 0
 44 181 -8 143 86 253 c 0
 104 273 151 320 151 326 c 0
 151 343 215 508 253 538 c 0
 271 553 310 551 338 565 c 0
 401 594 431 595 483 569 c 0
 518 552 514 547 560 469 c 0
 604 397 581 388 606 302 c 0
 622 248 625 171 631 161 c 0
 647 132 740 124 767 110 c 0
 803 92 825 67 819 50 c 0
 809 18 762 11 691 29 c 0
 662 37 604 74 598 74 c 0
 592 74 615 16 597 12 c 2
 552 0 l 1
 490 8 l 2
 350 -25 314 23 254 75 c 0
 221 103 212 97 202 145 c 0
 200 155 191 167 181 174 c 0
 165 184 162 186 146 176 c 0
 137 170 123 148 114 129 c 0
 105 110 121 126 104 105 c 0
 87 84 73 60 73 56 c 0
 73 52 61 38 47 24 c 0
 19 -4 -14 -10 -33 9 c 0
460 105 m 0
 484 127 479 137 439 155 c 0
 419 164 385 181 366 195 c 0
 320 225 301 228 287 204 c 0
 277 186 278 184 297 164 c 0
 322 138 364 113 393 107 c 0
 405 105 416 100 418 97 c 0
 425 86 443 89 460 105 c 0
513 307 m 2
 503 362 451 437 411 454 c 0
 384 465 337 466 330 456 c 0
 328 452 273 395 290 363 c 0
 319 307 386 331 442 296 c 0
 496 262 500 260 508 271 c 0
 514 279 515 292 513 307 c 2
EndSplineSet
Validated: 33
EndChar

StartChar: p
Encoding: 112 112 41
Width: 568
VWidth: 900
Flags: HW
LayerCount: 2
Fore
SplineSet
132 -234 m 0
 131 -230 127 -209 124 -189 c 0
 121 -169 116 -142 114 -130 c 0
 112 -118 104 -83 98 -50 c 0
 92 -17 84 13 82 15 c 0
 76 19 19 15 -11 6 c 0
 -31 0 -43 6 -53 25 c 0
 -61 40 -63 74 -57 89 c 0
 -55 96 -49 96 -29 94 c 0
 -5 91 -2 91 8 105 c 0
 15 113 34 133 51 150 c 0
 78 177 80 180 73 184 c 0
 66 188 65 198 65 243 c 0
 65 282 63 299 57 310 c 0
 53 319 47 348 45 382 c 0
 43 414 38 448 36 458 c 0
 34 468 32 499 32 526 c 0
 32 571 30 578 21 582 c 0
 11 588 11 596 25 633 c 0
 37 668 62 667 84 631 c 0
 119 577 150 480 159 394 c 0
 162 368 164 345 166 343 c 0
 168 341 180 347 194 357 c 0
 223 378 262 396 287 400 c 0
 302 402 312 400 341 385 c 0
 381 364 405 339 424 299 c 0
 463 215 467 125 434 62 c 0
 426 47 422 34 423 33 c 0
 429 27 464 29 508 37 c 0
 547 44 582 55 614 71 c 0
 632 80 631 72 610 48 c 0
 572 5 407 -53 364 -39 c 0
 355 -37 326 -34 298 -32 c 0
 270 -30 243 -25 240 -22 c 0
 231 -15 184 4 182 2 c 0
 181 1 186 -8 194 -19 c 0
 211 -44 216 -87 205 -124 c 0
 198 -145 198 -152 204 -168 c 0
 207 -178 210 -193 210 -202 c 0
 210 -217 209 -219 189 -228 c 0
 155 -243 135 -245 132 -234 c 0
344 52 m 0
 366 70 373 85 375 163 c 0
 378 249 375 258 332 302 c 0
 303 331 296 334 280 334 c 0
 264 334 258 330 236 308 c 0
 217 289 210 277 208 263 c 0
 207 253 203 234 200 222 c 0
 191 182 203 131 227 104 c 0
 233 98 239 92 242 92 c 0
 245 92 261 80 278 65 c 0
 295 50 312 39 318 39 c 0
 324 39 335 45 344 52 c 0
EndSplineSet
Validated: 33
EndChar

StartChar: q
Encoding: 113 113 42
Width: 790
VWidth: 900
Flags: HW
LayerCount: 2
Fore
SplineSet
429 -443 m 0
 429 -439 425 -393 422 -341 c 0
 418 -265 467 -94 450 -43 c 0
 439 -8 430 24 430 28 c 0
 430 32 426 39 422 43 c 0
 416 49 402 44 367 26 c 0
 324 4 316 1 266 1 c 0
 215 1 210 2 186 21 c 0
 172 32 153 47 145 53 c 0
 137 59 124 67 114 69 c 0
 98 72 94 69 79 47 c 0
 60 18 19 -15 -6 -17 c 0
 -23 -19 -22 -18 -21 26 c 0
 -20 79 -5 136 15 161 c 0
 26 176 28 186 25 208 c 0
 -11 452 253 479 256 479 c 2
 303 483 l 1
 332 456 l 2
 349 440 371 416 380 402 c 0
 414 352 522 227 541 105 c 0
 547 70 554 35 555 27 c 0
 556 19 568 9 568 1 c 0
 570 -81 596 -1 610 32 c 0
 760 378 913 152 732 2 c 0
 721 -7 713 -26 706 -35 c 0
 700 -43 694 -74 682 -102 c 0
 670 -130 599 -316 591 -342 c 0
 576 -392 544 -434 511 -446 c 0
 486 -455 429 -453 429 -443 c 0
287 122 m 0
 317 150 353 208 359 240 c 0
 362 259 360 267 343 291 c 0
 318 325 269 357 249 350 c 0
 241 348 225 328 214 308 c 0
 199 281 189 272 181 274 c 0
 174 275 166 275 160 272 c 0
 148 265 138 226 145 205 c 0
 154 177 237 99 258 99 c 0
 260 99 273 110 287 122 c 0
EndSplineSet
Validated: 33
EndChar

StartChar: r
Encoding: 114 114 43
Width: 633
VWidth: 900
Flags: HW
LayerCount: 2
Fore
SplineSet
511 -27 m 2
 482 -12 435 76 421 142 c 0
 410 196 410 154 421 190 c 0
 435 234 421 182 411 199 c 0
 405 208 402 209 392 200 c 0
 382 191 370 192 318 210 c 0
 281 222 321 210 310 207 c 0
 213 182 234 78 156 21 c 0
 140 10 118 -9 104 -20 c 0
 74 -46 39 -48 10 -24 c 0
 -9 -8 -10 -4 -6 30 c 0
 -3 56 0 63 6 57 c 0
 17 46 26 48 26 60 c 0
 26 66 40 78 56 88 c 0
 83 106 129 144 147 180 c 0
 148 182 184 218 174 236 c 0
 157 268 37 216 75 398 c 0
 86 450 125 456 159 462 c 0
 208 470 212 464 238 456 c 0
 345 423 346 413 338 297 c 2
 312 304 l 1
 345 290 l 2
 363 282 327 296 351 294 c 0
 393 291 393 288 403 309 c 0
 417 337 440 341 474 321 c 0
 509 300 516 273 516 169 c 0
 516 -3 551 72 620 80 c 0
 671 86 676 78 650 35 c 0
 614 -22 556 -48 511 -27 c 2
 511 -27 l 2
438 295 m 1
 436 297 430 297 424 295 c 0
 418 293 420 291 429 291 c 0
 437 291 440 293 438 295 c 1
 438 295 l 1
276 310 m 0
 259 424 160 373 159 372 c 0
 155 366 127 354 132 336 c 0
 159 234 278 298 276 310 c 0
EndSplineSet
Validated: 37
EndChar

StartChar: s
Encoding: 115 115 44
Width: 700
VWidth: 900
Flags: HW
HStem: -33 117<369 477>
LayerCount: 2
Fore
SplineSet
368 -40 m 2
 348 -20 331 0 331 4 c 0
 331 8 342 20 354 29 c 0
 372 43 384 44 426 42 c 0
 489 40 433 60 430 97 c 0
 428 117 444 110 407 160 c 0
 336 258 341 243 309 231 c 0
 290 224 287 230 264 196 c 0
 263 194 147 40 102 18 c 0
 58 -4 -33 -4 -33 18 c 0
 -33 24 -30 29 -27 29 c 0
 -24 29 -6 40 11 55 c 0
 33 74 42 78 42 69 c 0
 42 47 54 64 70 109 c 0
 82 143 92 158 116 174 c 0
 148 194 149 194 213 269 c 0
 261 326 260 285 264 367 c 0
 266 402 272 441 276 453 c 0
 285 482 320 501 380 507 c 0
 419 510 424 510 442 492 c 0
 479 455 472 467 416 376 c 0
 377 311 399 322 444 264 c 0
 463 238 478 230 497 202 c 0
 516 174 542 138 556 122 c 2
 580 93 l 1
 601 51 l 0
 645 14 737 41 737 25 c 0
 737 10 707 -4 633 -24 c 0
 569 -41 585 18 552 -8 c 0
 522 -32 495 -75 448 -75 c 0
 406 -75 404 -75 368 -40 c 2
EndSplineSet
Validated: 33
EndChar

StartChar: t
Encoding: 116 116 45
Width: 466
VWidth: 900
Flags: HW
LayerCount: 2
Fore
SplineSet
-19 0 m 0
 -23 8 -26 22 -26 32 c 0
 -26 48 -21 53 21 72 c 0
 47 84 80 95 92 96 c 0
 104 97 120 101 123 104 c 0
 126 107 137 150 147 198 c 0
 164 280 164 288 156 340 c 2
 147 395 l 1
 83 392 l 2
 22 389 18 388 -1 405 c 0
 -26 426 -20 436 25 450 c 0
 69 464 119 493 133 513 c 0
 143 528 144 542 140 611 c 0
 136 681 136 693 146 704 c 0
 156 715 157 724 150 762 c 0
 142 808 147 863 159 879 c 0
 169 890 203 891 213 879 c 0
 225 864 243 772 249 691 c 0
 259 551 262 545 352 552 c 0
 442 559 503 529 503 507 c 4
 503 504 484 501 462 501 c 4
 393 501 363 487 323 465 c 0
 272 437 262 423 258 379 c 0
 254 340 274 194 284 180 c 0
 287 176 292 164 294 154 c 0
 298 136 375 72 413 45 c 2
 430 33 l 1
 414 18 l 2
 405 10 390 3 382 3 c 0
 361 3 262 68 228 96 c 2
 199 120 l 1
 183 83 l 2
 163 38 145 28 82 28 c 0
 39 28 34 26 16 7 c 0
 -8 -18 -10 -18 -19 0 c 0
EndSplineSet
Validated: 33
EndChar

StartChar: u
Encoding: 117 117 46
Width: 751
VWidth: 900
Flags: HW
LayerCount: 2
Fore
SplineSet
249 -32 m 0
 227 -17 184 21 154 53 c 0
 119 90 97 108 94 102 c 0
 91 98 81 92 73 90 c 0
 65 88 52 75 45 63 c 0
 15 12 -62 -31 -86 -11 c 0
 -107 7 -97 38 -52 94 c 0
 36 204 35 200 56 415 c 0
 67 525 87 551 125 506 c 0
 142 486 143 476 146 392 c 0
 149 317 154 286 171 238 c 0
 201 151 232 96 267 62 c 0
 302 28 321 25 367 46 c 0
 404 63 516 179 532 215 c 0
 550 259 547 307 521 358 c 0
 491 416 491 428 526 438 c 0
 595 457 617 440 637 354 c 0
 643 328 655 287 663 262 c 0
 671 237 678 213 678 206 c 0
 678 199 692 173 709 148 c 0
 754 80 809 -32 803 -46 c 0
 801 -53 791 -58 782 -58 c 0
 755 -58 681 -4 657 33 c 0
 645 52 621 79 603 96 c 2
 572 126 l 1
 537 84 l 2
 438 -33 398 -58 323 -58 c 0
 297 -58 281 -52 249 -32 c 0
EndSplineSet
Validated: 33
EndChar

StartChar: v
Encoding: 118 118 47
Width: 805
VWidth: 900
Flags: HW
LayerCount: 2
Fore
SplineSet
390 -54 m 0
 371 -45 349 -37 341 -37 c 0
 333 -37 309 -27 287 -15 c 0
 257 2 242 18 225 48 c 0
 203 90 169 126 151 126 c 0
 145 126 130 110 116 93 c 0
 87 55 31 7 6 -1 c 0
 -6 -5 -16 -3 -27 11 c 0
 -49 39 -45 59 -2 104 c 0
 19 128 44 161 51 178 c 0
 66 213 83 221 82 255 c 0
 81 292 -40 513 -4 458 c 0
 16 428 67 533 143 461 c 4
 183 423 169 359 183 342 c 0
 187 336 199 312 206 287 c 0
 222 234 281 186 315 138 c 0
 341 101 380 79 399 90 c 0
 438 114 479 157 483 183 c 0
 485 199 493 225 500 242 c 0
 514 278 515 243 504 250 c 0
 494 256 501 326 502 340 c 0
 510 539 585 503 660 477 c 0
 712 459 695 347 673 235 c 0
 666 199 722 188 765 162 c 0
 865 101 882 69 834 33 c 2
 811 17 l 1
 765 39 l 2
 739 51 705 74 688 86 c 0
 643 122 592 115 592 73 c 0
 592 64 581 36 569 11 c 0
 553 -22 539 -37 519 -47 c 0
 472 -71 430 -73 390 -54 c 0
EndSplineSet
Validated: 37
EndChar

StartChar: w
Encoding: 119 119 48
Width: 814
VWidth: 900
Flags: HW
LayerCount: 2
Fore
SplineSet
-80 -4 m 2
 -80 10 -104 56 -75 71 c 0
 -47 85 32 112 38 128 c 0
 49 157 61 192 47 230 c 0
 41 245 35 267 32 281 c 0
 29 295 20 312 12 320 c 0
 -2 334 -1 335 17 357 c 0
 27 371 44 395 54 411 c 0
 81 453 128 451 150 407 c 0
 159 391 159 359 180 195 c 0
 191 108 246 84 303 146 c 0
 343 189 376 135 369 223 c 0
 365 284 365 296 381 315 c 0
 398 335 401 336 417 322 c 0
 426 314 439 305 447 303 c 0
 455 301 471 268 482 232 c 0
 507 154 555 105 565 105 c 0
 569 105 583 115 597 126 c 0
 619 144 624 156 636 235 c 0
 652 340 703 295 759 339 c 0
 822 387 844 376 854 288 c 0
 857 256 855 233 845 213 c 0
 817 157 734 91 729 56 c 0
 726 28 718 16 693 -1 c 0
 664 -21 657 -21 577 -17 c 0
 523 -14 490 -8 488 -1 c 0
 486 5 470 25 452 44 c 2
 421 79 l 1
 359 34 l 2
 325 9 288 -14 277 -17 c 0
 253 -23 173 -7 136 12 c 0
 112 24 95 72 63 42 c 0
 24 3 -28 -25 -60 -25 c 0
 -79 -25 -82 -21 -80 -4 c 2
 -80 -4 l 2
EndSplineSet
Validated: 37
EndChar

StartChar: x
Encoding: 120 120 49
Width: 758
VWidth: 900
Flags: HW
HStem: 3 57<587 833> 662 18G<615 627>
VStem: 191 16<30 39>
LayerCount: 2
Fore
SplineSet
-11 -32 m 5
 -44 -23 -49 -9 -40 21 c 4
 -36 35 -28 52 -21 60 c 4
 -14 68 42 100 105 133 c 4
 168 166 227 198 236 206 c 4
 297 261 202 317 201 318 c 4
 189 325 163 336 144 345 c 4
 119 357 104 371 86 398 c 4
 72 418 62 439 64 443 c 4
 71 460 98 459 141 441 c 4
 184 423 184 423 210 435 c 4
 245 451 254 445 282 390 c 4
 304 345 333 309 348 309 c 4
 363 309 398 346 408 368 c 4
 412 380 423 392 426 394 c 4
 429 396 437 408 441 420 c 4
 445 432 460 450 471 462 c 4
 491 483 491 485 516 475 c 4
 541 465 541 465 576 489 c 4
 595 503 617 512 624 512 c 4
 639 512 652 490 658 457 c 4
 662 435 659 427 634 400 c 4
 618 383 608 366 609 359 c 4
 610 351 606 346 591 342 c 4
 566 335 504 332 492 297 c 4
 488 283 458 239 452 235 c 4
 424 213 453 197 480 147 c 4
 497 115 527 85 562 71 c 4
 592 59 603 43 692 43 c 4
 750 43 762 41 760 33 c 4
 756 11 722 -4 641 -15 c 4
 554 -27 468 -21 468 -6 c 4
 468 -3 458 2 446 4 c 4
 419 8 302 64 295 75 c 4
 287 87 273 84 249 66 c 4
 237 57 195 36 158 21 c 4
 121 6 74 -13 56 -22 c 4
 21 -41 21 -41 -11 -32 c 5
183 18 m 4
 183 19 188 23 194 25 c 4
 200 27 202 24 200 21 c 4
 196 14 183 12 183 18 c 4
EndSplineSet
Validated: 33
EndChar

StartChar: y
Encoding: 121 121 50
Width: 603
VWidth: 900
Flags: HW
LayerCount: 2
Fore
SplineSet
200 -462 m 2
 146 -442 122 -427 87 -390 c 0
 66 -368 62 -358 62 -346 c 0
 62 -338 58 -328 55 -322 c 0
 48 -313 50 -311 60 -290 c 0
 67 -278 73 -266 75 -266 c 0
 77 -266 84 -259 91 -250 c 0
 98 -241 102 -235 99 -237 c 0
 96 -239 93 -238 93 -236 c 0
 93 -234 98 -229 104 -226 c 0
 110 -223 130 -205 150 -188 c 0
 170 -171 216 -136 252 -111 c 0
 288 -86 322 -60 328 -56 c 0
 339 -46 342 -27 333 -11 c 0
 330 -5 326 5 325 12 c 0
 322 28 311 33 308 21 c 0
 304 3 254 -3 184 6 c 0
 137 13 124 19 96 48 c 2
 75 71 l 1
 66 61 l 2
 62 55 57 47 57 44 c 0
 57 41 52 34 48 28 c 0
 44 22 39 9 37 -1 c 0
 33 -28 24 -38 -4 -48 c 0
 -40 -62 -99 -9 -120 0 c 0
 -145 10 -140 19 -100 43 c 0
 -79 55 -44 12 -39 21 c 0
 -35 29 -22 46 -12 60 c 0
 -2 74 12 99 19 116 c 0
 30 145 32 151 26 172 c 0
 23 184 19 211 17 232 c 0
 15 253 11 280 8 291 c 0
 -3 331 18 412 42 420 c 0
 53 423 121 399 127 389 c 0
 129 385 132 359 132 332 c 0
 132 292 130 284 123 276 c 0
 119 272 118 264 119 263 c 0
 120 262 124 239 126 213 c 0
 128 185 133 156 140 138 c 0
 149 113 152 106 168 97 c 0
 192 83 205 88 238 110 c 0
 252 120 275 133 287 140 c 0
 316 155 317 157 310 244 c 0
 306 304 305 313 312 334 c 0
 324 372 348 387 377 377 c 0
 406 368 408 356 407 250 c 0
 406 199 406 151 406 142 c 0
 406 133 406 101 406 68 c 0
 406 22 407 6 413 2 c 0
 419 -2 429 2 474 20 c 0
 504 32 530 38 533 38 c 0
 534 38 634 86 627 0 c 0
 626 -11 568 0 531 -20 c 0
 416 -82 429 -65 426 -83 c 0
 424 -93 427 -113 433 -137 c 0
 439 -157 443 -178 443 -184 c 0
 443 -198 459 -284 468 -313 c 0
 471 -325 480 -384 480 -384 c 0
 487 -444 483 -451 453 -466 c 0
 433 -476 426 -477 339 -478 c 2
 245 -479 l 1
 200 -462 l 2
396 -399 m 0
 404 -382 403 -375 386 -296 c 0
 383 -281 376 -244 370 -212 c 0
 355 -130 356 -129 344 -127 c 0
 328 -125 265 -170 204 -227 c 0
 176 -254 148 -276 144 -277 c 0
 135 -280 131 -285 127 -314 c 0
 125 -331 125 -336 141 -353 c 0
 152 -365 171 -378 195 -389 c 0
 231 -407 234 -408 285 -408 c 0
 328 -408 351 -410 384 -416 c 0
 386 -416 392 -408 396 -399 c 0
341 -148 m 1
 340 -146 341 -142 343 -141 c 0
 350 -137 354 -142 348 -148 c 0
 345 -151 343 -151 341 -148 c 1
 341 -148 l 1
EndSplineSet
Validated: 33
EndChar

StartChar: z
Encoding: 122 122 51
Width: 768
VWidth: 900
Flags: HW
LayerCount: 2
Fore
SplineSet
434 -522 m 2
 420 -520 405 -513 396 -504 c 0
 387 -495 363 -484 336 -475 c 0
 280 -457 257 -441 217 -393 c 0
 157 -322 159 -269 227 -196 c 0
 247 -174 267 -150 274 -146 c 0
 289 -135 349 -105 366 -101 c 0
 387 -95 432 -65 432 -56 c 0
 432 -45 365 6 331 18 c 2
 303 28 l 1
 303 66 l 2
 303 96 307 112 322 145 c 0
 339 184 340 188 334 216 c 0
 325 261 322 262 271 259 c 0
 184 252 141 218 101 125 c 0
 54 17 52 11 25 0 c 0
 11 -6 -13 -13 -29 -14 c 0
 -53 -16 -59 -15 -62 -7 c 0
 -66 5 -50 41 -8 104 c 0
 13 137 25 160 25 170 c 0
 25 205 53 286 71 302 c 0
 92 321 169 356 208 364 c 0
 258 374 402 377 420 367 c 0
 427 364 433 353 435 346 c 0
 438 331 430 227 418 147 c 2
 410 92 l 1
 459 42 l 2
 514 -15 518 -18 570 3 c 0
 613 21 689 68 709 88 c 0
 718 98 729 114 735 124 c 0
 743 140 747 143 766 144 c 0
 782 145 792 143 803 134 c 0
 817 124 818 118 818 91 c 0
 818 74 816 57 814 54 c 0
 812 51 799 43 785 36 c 0
 771 29 753 19 744 11 c 0
 735 3 719 -5 709 -11 c 0
 699 -17 675 -32 656 -44 c 0
 637 -56 614 -70 604 -76 c 0
 582 -88 582 -109 601 -156 c 0
 609 -174 617 -213 620 -240 c 0
 628 -304 622 -349 595 -406 c 0
 578 -442 570 -452 549 -466 c 0
 534 -475 511 -493 497 -505 c 0
 483 -517 469 -526 465 -526 c 0
 461 -526 446 -524 434 -522 c 2
 434 -522 l 2
493 -406 m 1
 499 -403 511 -390 519 -376 c 0
 531 -355 532 -345 532 -306 c 0
 531 -228 514 -161 492 -145 c 0
 477 -135 458 -142 411 -172 c 0
 322 -229 267 -280 267 -308 c 0
 267 -324 281 -350 292 -353 c 0
 298 -354 315 -358 331 -360 c 0
 352 -362 360 -366 362 -374 c 0
 365 -386 394 -399 433 -406 c 0
 473 -413 481 -413 493 -406 c 1
 493 -406 l 1
EndSplineSet
Validated: 33
EndChar

StartChar: braceleft
Encoding: 123 123 52
Width: 609
VWidth: 900
Flags: HW
LayerCount: 2
Fore
SplineSet
297 -109 m 2
 262 -95 240 -81 237 -71 c 0
 236 -67 225 -48 214 -30 c 0
 203 -12 188 13 182 27 c 0
 149 108 113 187 99 202 c 0
 95 206 86 212 82 212 c 0
 78 212 69 215 66 219 c 0
 63 223 57 227 51 227 c 0
 45 227 36 231 32 237 c 0
 28 243 14 257 4 267 c 0
 -11 283 -13 286 -7 296 c 0
 2 313 29 327 53 327 c 0
 78 327 107 316 146 289 c 0
 179 267 197 264 217 282 c 0
 243 304 235 348 195 398 c 0
 168 432 106 531 97 556 c 0
 82 596 84 617 108 664 c 0
 142 732 181 760 259 776 c 0
 297 784 304 784 321 777 c 0
 346 767 355 738 341 711 c 0
 330 687 290 666 251 662 c 0
 213 658 198 648 198 628 c 0
 198 620 195 611 192 609 c 0
 182 603 187 573 202 548 c 0
 234 494 264 447 289 413 c 0
 296 404 303 387 305 375 c 0
 307 363 312 345 318 335 c 0
 326 320 327 313 323 299 c 0
 307 248 287 221 249 199 c 0
 223 184 216 173 227 164 c 0
 231 161 235 153 235 147 c 0
 235 129 277 44 305 7 c 2
 331 -27 l 1
 368 -26 l 2
 388 -25 438 -22 480 -19 c 0
 522 -16 558 -15 560 -16 c 0
 568 -20 560 -45 548 -57 c 0
 522 -83 489 -98 436 -107 c 0
 356 -121 325 -120 297 -109 c 2
 297 -109 l 2
303 233 m 0
 303 236 305 237 308 235 c 0
 311 233 314 231 314 230 c 0
 314 229 311 227 308 227 c 0
 305 227 303 230 303 233 c 0
EndSplineSet
Validated: 33
EndChar

StartChar: braceright
Encoding: 125 125 53
Width: 495
VWidth: 900
Flags: HW
LayerCount: 2
Fore
SplineSet
243 -160 m 2
 227 -158 211 -152 207 -148 c 0
 203 -144 195 -141 187 -141 c 0
 170 -141 162 -129 174 -122 c 0
 190 -113 186 -102 166 -94 c 0
 151 -88 148 -85 148 -70 c 0
 148 -35 177 -30 240 -57 c 0
 265 -67 272 -68 290 -62 c 0
 323 -52 330 -36 330 18 c 0
 330 51 334 75 342 96 c 0
 349 113 354 141 354 159 c 0
 354 187 352 193 338 204 c 0
 329 211 318 216 314 216 c 0
 310 216 306 220 306 222 c 0
 306 224 292 241 276 260 c 0
 255 285 244 302 238 326 c 0
 227 372 228 449 242 492 c 0
 249 516 254 549 254 585 c 0
 254 635 252 641 242 649 c 0
 215 668 184 651 176 613 c 0
 170 584 150 557 130 549 c 0
 104 539 100 545 104 579 c 0
 107 607 107 610 89 619 c 0
 72 628 70 630 70 658 c 0
 70 696 85 713 135 727 c 0
 179 739 268 740 296 729 c 0
 322 719 342 690 342 669 c 0
 342 660 346 646 349 637 c 0
 355 625 353 597 342 504 c 0
 326 370 328 350 363 315 c 0
 379 299 388 295 407 295 c 0
 470 295 481 277 467 180 c 0
 458 116 458 110 467 100 c 0
 476 90 476 89 465 89 c 0
 454 89 451 86 452 61 c 0
 453 28 439 -54 425 -89 c 0
 419 -105 409 -116 398 -120 c 0
 389 -124 362 -136 340 -146 c 0
 297 -165 291 -167 243 -160 c 2
 243 -160 l 2
EndSplineSet
Validated: 33
EndChar

StartChar: bracketleft
Encoding: 91 91 54
Width: 750
VWidth: 900
Flags: HW
LayerCount: 2
Fore
SplineSet
91 -116 m 2
 85 -105 83 -62 80 20 c 0
 77 104 73 149 66 171 c 0
 54 214 46 280 40 405 c 0
 38 463 34 515 32 519 c 0
 30 523 23 560 20 600 c 0
 16 645 11 675 7 676 c 0
 -5 680 0 699 18 714 c 0
 36 729 36 729 105 726 c 0
 157 724 194 724 256 732 c 0
 301 738 279 731 296 731 c 0
 318 731 336 736 354 746 c 0
 375 757 385 760 405 758 c 0
 426 755 432 752 441 735 c 0
 507 612 406 666 238 657 c 5
 184 651 l 2
 155 648 128 642 125 639 c 0
 121 635 121 602 125 532 c 0
 135 368 140 308 156 233 c 0
 168 172 174 160 186 150 c 2
 200 138 l 1
 191 101 l 2
 181 61 180 6 188 -6 c 0
 192 -13 198 -12 230 -3 c 0
 305 17 305 16 478 28 c 0
 521 31 529 30 532 22 c 0
 536 8 520 -7 483 -26 c 0
 466 -35 441 -49 430 -57 c 0
 419 -65 399 -71 384 -73 c 0
 354 -77 313 -94 298 -109 c 0
 289 -118 411 -95 348 -98 c 0
 305 -100 239 -108 202 -115 c 0
 92 -135 100 -134 91 -116 c 2
 91 -116 l 2
EndSplineSet
Validated: 37
EndChar

StartChar: bracketright
Encoding: 93 93 55
Width: 778
VWidth: 900
Flags: HW
LayerCount: 2
Fore
SplineSet
543 -171 m 0
 447 -169 357 -163 342 -159 c 0
 310 -150 300 -135 300 -99 c 0
 300 -70 298 -68 438 -57 c 0
 566 -47 567 -48 587 -24 c 0
 593 -17 601 -1 603 10 c 0
 611 42 582 523 570 587 c 2
 562 626 l 1
 511 626 l 2
 457 626 428 638 388 630 c 0
 376 628 359 619 352 611 c 0
 337 595 322 594 278 608 c 0
 214 627 200 670 250 706 c 0
 275 724 285 727 306 724 c 0
 321 722 356 725 386 732 c 0
 443 744 617 724 654 717 c 0
 664 715 677 707 680 699 c 0
 690 680 700 586 709 433 c 0
 713 361 719 243 723 171 c 0
 742 -158 739 -117 740 -122 c 4
 743 -137 726 -167 709 -156 c 0
 708 -155 570 -172 543 -171 c 0
EndSplineSet
Validated: 33
EndChar

StartChar: quotedbl
Encoding: 34 34 56
Width: 591
VWidth: 900
Flags: HW
LayerCount: 2
Fore
SplineSet
300 624 m 0
 300 625 298 571 289 684 c 0
 286 731 283 670 285 717 c 0
 286 742 251 752 254 777 c 0
 260 815 261 856 358 863 c 0
 420 867 436 868 423 642 c 0
 422 622 438 586 420 586 c 0
 402 586 352 562 326 582 c 0
 304 599 300 623 300 624 c 0
102 654 m 0
 102 655 100 600 91 713 c 0
 88 760 85 699 87 746 c 0
 88 771 53 781 56 806 c 0
 62 844 63 885 160 892 c 0
 222 896 238 896 225 670 c 0
 224 650 249 582 231 582 c 0
 213 582 163 558 137 578 c 0
 115 595 102 653 102 654 c 0
EndSplineSet
Validated: 33
EndChar

StartChar: quotesingle
Encoding: 39 39 57
Width: 591
VWidth: 900
Flags: HW
LayerCount: 2
Fore
SplineSet
241 616 m 0
 241 617 239 563 230 676 c 0
 227 723 224 662 226 709 c 0
 227 734 192 743 195 768 c 0
 201 806 202 848 299 855 c 0
 361 859 376 859 363 633 c 0
 362 613 387 544 369 544 c 0
 351 544 302 521 276 541 c 0
 254 558 241 615 241 616 c 0
EndSplineSet
Validated: 33
EndChar

StartChar: comma
Encoding: 44 44 58
Width: 502
VWidth: 900
InSpiro: 1
Flags: HW
LayerCount: 2
Fore
SplineSet
134.827148438 -136.158203125 m 0
 137.2109375 -126.018554688 142.077148438 -116.264648438 149.791992188 -109.267578125 c 0
 153.649414062 -105.768554688 158.174804688 -103.017578125 163.0390625 -101.155273438 c 0
 167.90234375 -99.29296875 173.071289062 -98.33984375 178.251953125 -97.814453125 c 0
 186.317382812 -96.99609375 194.663085938 -97.123046875 202.19140625 -94.1162109375 c 0
 205.956054688 -92.61328125 209.431640625 -90.3046875 212.05859375 -87.216796875 c 0
 214.68359375 -84.1298828125 216.39453125 -80.30078125 217.091796875 -76.30859375 c 0
 218.004882812 -71.0791015625 217.229492188 -65.71875 216.392578125 -60.4755859375 c 0
 215.5546875 -55.2333984375 214.865234375 -49.953125 214.875 -44.642578125 c 0
 214.880859375 -42.04296875 215.000976562 -39.4423828125 215.041992188 -36.8408203125 c 0
 215.159179688 -29.4375 214.060546875 -21.892578125 210.653320312 -15.3173828125 c 0
 207.244140625 -8.7431640625 201.975585938 -3.3408203125 196.538085938 1.685546875 c 0
 191.396484375 6.4365234375 186.096679688 11.0419921875 181.424804688 16.2568359375 c 0
 176.75390625 21.4716796875 172.711914062 27.279296875 169.75390625 33.625 c 0
 163.836914062 46.3154296875 162.552734375 60.86328125 164.700195312 74.7001953125 c 0
 166.659179688 87.326171875 171.129882812 99.51171875 177.299804688 110.700195312 c 0
 182.455078125 120.049804688 188.885742188 128.749023438 196.723632812 135.999023438 c 0
 204.5625 143.25 213.887695312 148.982421875 224.100585938 152.100585938 c 0
 240.5546875 157.124023438 258.8671875 154.708007812 274.08203125 146.674804688 c 0
 289.296875 138.640625 301.280273438 125.712890625 312.299804688 112.5 c 0
 321.659179688 101.279296875 331.256835938 90.263671875 341.1796875 79.5380859375 c 0
 344.586914062 75.8564453125 347.935546875 72.1083984375 350.892578125 68.056640625 c 0
 357.950195312 58.388671875 362.124023438 46.6279296875 362.41015625 34.6611328125 c 0
 362.6953125 22.693359375 359.680664062 10.9130859375 356.452148438 -0.6142578125 c 0
 349.889648438 -24.044921875 344.833007812 -47.8984375 337.5 -71.1005859375 c 0
 332.6953125 -86.2978515625 326.0234375 -100.977539062 316.8515625 -114.014648438 c 0
 298.600585938 -139.959960938 271.984375 -158.780273438 244.8515625 -175.21484375 c 0
 226.377929688 -186.404296875 206.743164062 -197.2734375 185.2265625 -199.158203125 c 0
 178.513671875 -199.74609375 171.674804688 -199.326171875 165.190429688 -197.493164062 c 0
 158.705078125 -195.66015625 152.611328125 -192.376953125 147.65234375 -187.814453125 c 0
 140.811523438 -181.521484375 136.306640625 -172.900390625 134.337890625 -163.81640625 c 0
 132.369140625 -154.731445312 132.700195312 -145.20703125 134.827148438 -136.158203125 c 0
  Spiro
    134.827 -136.158 o
    178.252 -97.8145 o
    217.092 -76.3081 o
    214.875 -44.6436 o
    215.042 -36.8415 o
    196.537 1.68561 o
    164.7 74.7 o
    177.3 110.7 o
    224.1 152.1 o
    312.3 112.5 o
    341.18 79.5384 o
    350.893 68.0575 o
    356.452 -0.61452 o
    337.5 -71.1 o
    316.852 -114.015 o
    244.852 -175.215 o
    185.227 -199.158 o
    147.652 -187.815 o
    0 0 z
  EndSpiro
EndSplineSet
Validated: 524321
EndChar

StartChar: zero
Encoding: 48 48 59
Width: 592
VWidth: 900
Flags: HW
HStem: 2 98<281 361> 561 165<262 395>
LayerCount: 2
Fore
SplineSet
222 14 m 0
 205 22 183 31 174 35 c 0
 165 39 152 52 148 62 c 0
 144 72 117 106 88 136 c 0
 24 204 20 211 12 271 c 0
 9 297 3 323 -1 327 c 0
 -7 334 -6 343 3 364 c 0
 24 417 53 429 53 468 c 0
 53 502 56 516 88 573 c 0
 127 646 176 703 212 720 c 0
 231 729 246 730 300 727 c 0
 338 725 377 717 393 710 c 0
 457 682 539 595 565 525 c 0
 573 505 581 462 585 429 c 0
 599 318 598 317 576 243 c 0
 564 205 486 88 451 56 c 0
 411 19 373 5 308 2 c 0
 261 0 248 2 222 14 c 0
395 151 m 0
 445 204 475 253 483 299 c 0
 485 314 485 278 482 359 c 2
 478 447 l 1
 450 487 l 2
 415 539 398 555 377 555 c 0
 368 555 350 559 340 565 c 0
 318 576 303 578 303 568 c 0
 303 565 296 561 289 561 c 0
 275 561 249 531 249 516 c 0
 249 512 239 499 228 489 c 0
 214 477 208 466 208 452 c 0
 208 450 71 273 161 245 c 0
 168 243 176 234 178 224 c 0
 185 197 261 123 296 111 c 0
 313 105 330 100 336 100 c 0
 342 100 369 123 395 151 c 0
EndSplineSet
Validated: 33
EndChar

StartChar: one
Encoding: 49 49 60
Width: 556
VWidth: 900
Flags: HW
LayerCount: 2
Fore
SplineSet
234 2 m 0
 196 26 195 71 230 107 c 2
 253 130 l 1
 243 226 l 2
 233 319 206 443 191 453 c 0
 177 463 124 442 124 426 c 0
 124 410 115 411 81 428 c 0
 47 445 14 482 16 500 c 0
 26 571 137 476 170 642 c 0
 174 663 181 698 184 718 c 0
 190 748 193 756 207 760 c 0
 232 769 268 758 292 731 c 0
 310 710 312 706 303 696 c 0
 297 690 294 684 296 682 c 0
 298 680 303 608 306 522 c 0
 314 341 330 320 344 274 c 0
 350 256 357 218 360 186 c 0
 367 115 372 109 443 105 c 0
 499 102 528 88 528 68 c 0
 528 59 520 54 503 50 c 0
 489 47 462 40 442 34 c 0
 422 28 394 18 382 10 c 0
 366 1 344 -5 307 -7 c 0
 262 -10 252 -9 234 2 c 0
EndSplineSet
Validated: 33
EndChar

StartChar: two
Encoding: 50 50 61
Width: 838
VWidth: 900
Flags: HW
LayerCount: 2
Fore
SplineSet
677 -29 m 0
 673 -28 626 -15 574 2 c 2
 479 33 l 1
 370 27 l 2
 264 23 261 22 244 40 c 0
 235 50 227 65 227 72 c 0
 227 79 248 123 274 169 c 0
 320 251 352 321 403 450 c 0
 428 513 416 374 412 447 c 0
 408 516 405 525 388 537 c 0
 378 545 360 558 349 567 c 0
 338 576 318 583 308 583 c 0
 298 583 278 588 264 595 c 0
 250 602 226 606 209 605 c 0
 181 603 179 601 177 574 c 0
 176 558 170 542 163 536 c 0
 156 530 151 521 151 515 c 0
 151 498 118 471 98 471 c 0
 88 471 80 475 80 478 c 0
 80 481 71 490 60 496 c 0
 39 507 0 574 0 600 c 0
 0 633 19 657 63 678 c 0
 156 724 266 734 332 700 c 0
 353 690 383 678 399 675 c 0
 450 666 493 626 514 568 c 0
 530 525 533 503 533 428 c 0
 533 336 530 396 510 372 c 0
 504 365 496 348 493 336 c 0
 490 324 476 287 461 255 c 0
 446 223 434 194 434 187 c 0
 434 172 489 150 524 150 c 0
 540 150 565 141 586 126 c 0
 605 112 625 101 629 101 c 0
 633 101 666 90 701 74 c 0
 736 58 770 46 778 46 c 0
 797 46 834 11 828 -4 c 0
 821 -23 787 -34 735 -33 c 0
 708 -33 681 -30 677 -29 c 0
EndSplineSet
Validated: 37
EndChar

StartChar: three
Encoding: 51 51 62
Width: 616
VWidth: 900
Flags: HW
LayerCount: 2
Fore
SplineSet
252 -8 m 1
 242 -4 182 35 114 82 c 0
 77 108 59 135 58 164 c 0
 58 180 85 200 140 228 c 0
 176 246 182 246 182 228 c 0
 182 219 190 212 200 208 c 0
 218 201 222 185 210 177 c 0
 200 170 203 153 214 153 c 0
 220 153 234 141 246 129 c 0
 267 108 274 106 332 102 c 2
 394 97 l 1
 432 138 l 2
 480 189 487 212 465 260 c 0
 445 305 423 289 402 297 c 0
 380 305 363 330 363 356 c 0
 363 367 373 394 385 415 c 0
 453 532 467 496 440 538 c 0
 415 575 360 598 300 598 c 0
 247 598 217 587 218 569 c 0
 218 562 213 556 206 554 c 0
 199 552 190 544 186 536 c 0
 179 525 183 513 209 470 c 0
 228 438 237 418 231 418 c 0
 227 418 220 413 218 405 c 0
 215 394 209 392 181 392 c 0
 144 392 134 396 90 432 c 0
 55 461 26 506 9 557 c 2
 -3 595 l 1
 24 618 l 2
 69 657 131 695 168 706 c 0
 207 717 307 721 364 710 c 0
 386 706 416 692 466 655 c 0
 549 593 574 574 560 506 c 0
 541 408 491 405 498 385 c 0
 524 304 574 328 582 230 c 0
 585 190 584 178 567 141 c 0
 545 91 490 35 444 15 c 0
 396 -6 284 -20 252 -8 c 1
 252 -8 l 1
EndSplineSet
Validated: 33
EndChar

StartChar: four
Encoding: 52 52 63
Width: 498
VWidth: 900
Flags: HW
LayerCount: 2
Fore
SplineSet
369 91 m 2
 350 151 331 211 327 223 c 0
 323 235 338 154 334 170 c 0
 324 207 301 223 266 216 c 0
 251 214 217 214 191 216 c 0
 147 220 139 224 88 264 c 0
 -1 335 2 365 11 428 c 4
 17 471 28 504 48 544 c 0
 64 576 80 614 82 630 c 0
 88 666 104 684 141 694 c 0
 180 704 198 698 217 669 c 0
 238 637 233 604 200 559 c 0
 171 519 146 451 146 413 c 0
 146 370 149 383 169 351 c 0
 188 323 189 323 234 323 c 0
 260 323 292 327 308 331 c 0
 335 339 344 353 328 363 c 0
 312 373 315 475 341 497 c 0
 387 537 432 537 447 497 c 0
 451 485 461 353 461 292 c 0
 461 204 442 272 454 220 c 0
 465 174 471 132 471 76 c 0
 471 -12 469 -18 426 -18 c 2
 404 -18 l 1
 369 91 l 2
EndSplineSet
Validated: 33
EndChar

StartChar: five
Encoding: 53 53 64
Width: 508
VWidth: 900
Flags: HW
LayerCount: 2
Fore
SplineSet
168 -26 m 1
 157 -25 146 -18 142 -8 c 0
 138 1 130 10 126 10 c 0
 122 10 124 14 133 17 c 0
 154 25 147 34 105 53 c 0
 29 88 -22 140 -8 170 c 0
 2 192 27 202 57 198 c 0
 74 196 87 197 96 204 c 0
 117 220 120 216 120 171 c 2
 120 128 l 1
 158 99 l 2
 198 67 213 64 242 80 c 0
 287 104 379 224 379 260 c 0
 379 294 331 349 273 385 c 0
 239 405 198 343 106 424 c 0
 45 478 35 491 26 520 c 0
 17 552 17 554 28 570 c 0
 42 589 189 699 228 720 c 0
 260 737 283 738 309 722 c 0
 326 712 332 712 351 720 c 0
 388 736 406 732 413 712 c 0
 419 696 417 688 392 651 c 0
 368 615 356 606 327 594 c 0
 288 578 279 583 303 609 c 0
 324 631 315 636 282 619 c 0
 267 611 250 605 246 605 c 0
 234 605 156 567 150 558 c 0
 135 534 212 546 330 466 c 0
 453 383 477 348 477 258 c 0
 477 211 475 198 457 165 c 0
 446 145 411 102 379 70 c 0
 325 16 318 11 267 -6 c 0
 203 -27 192 -29 168 -26 c 1
 168 -26 l 1
EndSplineSet
Validated: 33
EndChar

StartChar: six
Encoding: 54 54 65
Width: 534
VWidth: 900
Flags: HW
LayerCount: 2
Fore
SplineSet
84 14 m 0
 34 40 1 93 1 148 c 0
 1 188 23 254 50 297 c 0
 62 317 73 337 73 343 c 0
 73 349 77 357 80 359 c 0
 83 361 92 374 99 389 c 0
 106 404 132 439 154 468 c 0
 328 695 328 695 379 710 c 0
 424 724 510 729 514 675 c 0
 522 586 426 673 280 486 c 0
 247 444 236 419 246 403 c 0
 249 397 272 386 294 378 c 0
 368 351 425 300 425 262 c 0
 425 210 405 152 385 143 c 0
 376 139 369 130 369 120 c 0
 367 49 368 53 346 57 c 0
 331 60 313 56 276 39 c 0
 214 12 162 -3 135 -3 c 0
 124 -3 101 5 84 14 c 0
209 111 m 0
 234 119 252 130 272 151 c 0
 288 167 302 185 302 189 c 0
 302 211 270 255 243 269 c 0
 227 277 208 290 199 297 c 0
 190 304 179 307 173 305 c 0
 159 299 139 257 128 210 c 0
 104 110 123 86 209 111 c 0
317 109 m 0
 336 123 319 129 295 117 c 0
 284 111 276 106 276 104 c 0
 276 97 306 101 317 109 c 0
EndSplineSet
Validated: 33
EndChar

StartChar: seven
Encoding: 55 55 66
Width: 565
VWidth: 900
Flags: HW
LayerCount: 2
Fore
SplineSet
417 18 m 1
 403 29 391 51 381 80 c 0
 367 120 367 139 367 280 c 0
 367 305 372 340 380 412 c 0
 386 460 393 498 407 531 c 0
 418 557 426 580 424 582 c 0
 413 593 270 580 231 564 c 0
 203 553 184 522 183 483 c 0
 182 464 182 445 182 443 c 0
 182 441 170 435 155 428 c 0
 130 416 128 416 119 428 c 0
 115 435 110 449 110 460 c 0
 110 472 100 493 84 513 c 0
 69 531 47 568 35 595 c 0
 23 622 8 648 4 654 c 0
 -3 662 -2 667 7 684 c 0
 27 723 59 730 106 704 c 0
 134 689 144 688 323 686 c 2
 511 684 l 1
 531 658 l 2
 553 629 555 608 539 561 c 0
 531 537 528 527 534 521 c 0
 540 515 536 507 524 492 c 0
 514 481 509 466 511 460 c 0
 513 454 510 442 504 431 c 0
 488 399 487 440 487 212 c 2
 487 0 l 1
 462 0 l 2
 446 0 431 7 417 18 c 1
 417 18 l 1
EndSplineSet
Validated: 33
EndChar

StartChar: eight
Encoding: 56 56 67
Width: 574
VWidth: 900
Flags: HW
LayerCount: 2
Fore
SplineSet
71 -18 m 0
 51 -11 26 -1 16 6 c 0
 -19 28 -27 97 -2 147 c 0
 19 190 109 211 216 295 c 0
 235 311 231 330 207 330 c 0
 196 330 187 336 183 348 c 0
 180 358 171 367 164 369 c 0
 156 371 152 375 154 381 c 0
 156 387 156 390 150 390 c 0
 146 390 133 400 123 410 c 0
 108 426 104 438 100 483 c 0
 96 533 89 494 63 529 c 0
 59 535 61 548 70 569 c 0
 81 596 90 605 124 624 c 0
 164 646 260 682 317 694 c 0
 353 702 434 690 469 672 c 0
 491 661 540 609 551 587 c 0
 563 563 558 553 534 507 c 0
 523 486 490 441 461 408 c 0
 399 339 431 353 489 290 c 0
 660 103 379 15 377 14 c 0
 324 -3 163 -31 128 -30 c 0
 117 -30 91 -25 71 -18 c 0
295 70 m 0
 341 74 502 101 350 225 c 0
 307 260 299 260 261 232 c 0
 216 198 136 188 111 153 c 0
 92 126 84 90 94 80 c 0
 108 66 207 61 295 70 c 0
394 452 m 4
 431 514 457 526 457 554 c 0
 457 576 439 591 406 597 c 0
 391 599 378 606 376 609 c 0
 365 626 245 558 209 519 c 0
 173 480 208 459 219 452 c 0
 244 437 260 409 346 397 c 4
 353 396 374 418 394 452 c 4
EndSplineSet
Validated: 33
EndChar

StartChar: nine
Encoding: 57 57 68
Width: 498
VWidth: 900
Flags: HW
LayerCount: 2
Fore
SplineSet
82 -52 m 0
 49 -42 45 -34 46 8 c 0
 47 45 48 49 70 61 c 2
 93 74 l 1
 107 57 l 2
 133 23 132 24 159 32 c 0
 174 35 200 49 219 60 c 0
 240 71 271 81 292 83 c 0
 312 85 338 93 349 101 c 2
 369 116 l 1
 364 258 l 2
 362 332 364 332 338 321 c 0
 270 292 93 296 83 328 c 0
 81 335 68 346 56 352 c 0
 17 370 4 392 4 442 c 0
 4 471 8 488 15 494 c 0
 22 500 25 514 25 534 c 0
 25 559 30 573 46 595 c 0
 57 611 70 624 73 624 c 0
 76 624 97 638 116 656 c 0
 176 713 195 737 322 709 c 0
 491 672 487 304 472 79 c 0
 468 17 467 13 453 15 c 0
 445 16 400 6 350 -10 c 0
 212 -54 133 -67 82 -52 c 0
295 417 m 0
 324 452 331 457 325 497 c 0
 319 536 299 553 249 559 c 0
 214 563 210 562 170 534 c 0
 126 502 113 484 117 454 c 0
 119 440 110 413 160 406 c 0
 190 402 194 400 205 394 c 0
 234 378 268 384 295 417 c 0
EndSplineSet
Validated: 33
EndChar

StartChar: asterisk
Encoding: 42 42 69
Width: 900
VWidth: 900
Flags: HW
LayerCount: 2
Fore
SplineSet
119 421 m 4
 199 342 249 323 314 269 c 4
 314 269 215 180 209 104 c 28
 207 66 279 28 299 61 c 4
 380 191 397 228 412 226 c 4
 474 215 493 173 544 136 c 28
 562 122 566 90 587 97 c 28
 621 107 665 135 646 164 c 28
 599 237 540 222 461 290 c 4
 461 290 542 383 580 439 c 4
 599 468 531 507 505 485 c 4
 453 439 389 341 389 341 c 4
 323 399 288 459 199 485 c 28
 161 496 91 449 119 421 c 4
EndSplineSet
Validated: 41
EndChar

StartChar: parenright
Encoding: 41 41 70
Width: 741
VWidth: 900
Flags: HW
LayerCount: 2
Fore
SplineSet
153 -111 m 0
 135 -104 139 -98 199 -56 c 0
 311 23 384 116 415 218 c 0
 428 262 438 397 430 436 c 0
 427 453 422 479 419 494 c 0
 413 525 382 593 344 659 c 0
 322 697 320 707 323 725 c 0
 329 753 360 788 375 783 c 0
 391 778 442 717 442 702 c 0
 442 695 450 673 461 652 c 0
 516 545 542 393 525 270 c 0
 520 233 516 196 516 186 c 0
 516 176 512 163 507 159 c 0
 502 155 481 126 462 96 c 0
 400 0 296 -81 204 -109 c 0
 169 -119 171 -119 153 -111 c 0
EndSplineSet
Validated: 33
EndChar

StartChar: parenleft
Encoding: 40 40 71
Width: 741
VWidth: 900
Flags: HW
LayerCount: 2
Fore
SplineSet
355 -159 m 1
 347 -156 334 -151 324 -149 c 0
 314 -147 292 -132 273 -115 c 0
 243 -88 239 -81 233 -44 c 0
 229 -22 222 1 219 5 c 0
 209 17 192 124 192 172 c 0
 192 195 188 217 185 219 c 0
 181 222 182 228 188 237 c 0
 194 245 202 288 208 332 c 0
 223 443 239 522 249 546 c 0
 254 557 258 577 260 590 c 0
 265 625 298 704 314 721 c 0
 342 751 417 731 441 687 c 0
 453 665 453 664 440 638 c 0
 432 623 414 602 399 591 c 0
 365 564 351 527 330 420 c 0
 300 264 299 74 330 6 c 0
 337 -9 346 -29 350 -39 c 0
 362 -70 402 -84 487 -89 c 0
 529 -91 568 -97 575 -100 c 0
 587 -106 588 -107 573 -119 c 0
 565 -126 551 -132 544 -132 c 0
 537 -132 524 -136 516 -141 c 0
 484 -161 386 -172 355 -159 c 1
 355 -159 l 1
EndSplineSet
Validated: 33
EndChar

StartChar: question
Encoding: 63 63 72
Width: 652
VWidth: 900
Flags: HW
LayerCount: 2
Fore
SplineSet
308 71 m 24
 323 68 345 66 342 51 c 24
 338 32 301 24 298 24 c 8
 295 24 278 47 281 64 c 24
 283 74 298 73 308 71 c 24
261 415 m 24
 239 439 231 486 231 493 c 8
 231 500 230 566 237 580 c 8
 244 594 278 618 302 621 c 8
 326 624 379 597 382 597 c 8
 385 597 433 530 436 516 c 8
 439 502 450 442 443 422 c 8
 436 402 396 341 389 338 c 8
 382 335 355 324 339 307 c 24
 325 292 320 280 318 260 c 24
 316 232 326 217 328 189 c 24
 330 161 338 144 328 118 c 24
 324 108 310 114 302 122 c 24
 291 133 285 139 288 159 c 8
 291 179 291 199 291 223 c 8
 291 247 287 302 305 348 c 24
 313 368 338 361 352 378 c 24
 370 399 382 414 382 442 c 24
 381 485 377 514 349 547 c 24
 334 564 294 547 291 550 c 8
 288 553 261 519 261 516 c 8
 261 513 271 476 271 449 c 24
 271 435 270 405 261 415 c 24
EndSplineSet
Validated: 33
EndChar

StartChar: period
Encoding: 46 46 73
Width: 615
VWidth: 900
Flags: HWO
LayerCount: 2
Fore
SplineSet
234 174 m 0
 299 233 447.09375 189.333984375 372 62 c 0
 349 23 315 20.98046875 312 21 c 0
 160 22 218.153320312 159.616210938 234 174 c 0
EndSplineSet
EndChar
